<svg width="223" height="223" viewBox="0 0 223 223" fill="none" xmlns="http://www.w3.org/2000/svg">
<g filter="url(#filter0_d_310_41)">
<circle cx="108.5" cy="110.5" r="100.5" fill="black" fill-opacity="0.42" shape-rendering="crispEdges"/>
</g>
<g clip-path="url(#clip0_310_41)">
<path d="M90.5 176C102.4 176 112 166.4 112 154.5V133H90.5C78.6 133 69 142.6 69 154.5C69 166.4 78.6 176 90.5 176Z" fill="#0ACF83"/>
<path d="M69 111.5C69 99.6 78.6 90 90.5 90H112V133H90.5C78.6 133 69 123.4 69 111.5Z" fill="#A259FF"/>
<path d="M69 68.5C69 56.6 78.6 47 90.5 47H112V90H90.5C78.6 90 69 80.4 69 68.5Z" fill="#F24E1E"/>
<path d="M112 47H133.5C145.4 47 155 56.6 155 68.5C155 80.4 145.4 90 133.5 90H112V47Z" fill="#FF7262"/>
<path d="M155 111.5C155 123.4 145.4 133 133.5 133C121.6 133 112 123.4 112 111.5C112 99.6 121.6 90 133.5 90C145.4 90 155 99.6 155 111.5Z" fill="#1ABCFE"/>
</g>
<defs>
<filter id="filter0_d_310_41" x="0.1" y="0.1" width="222.8" height="222.8" filterUnits="userSpaceOnUse" color-interpolation-filters="sRGB">
<feFlood flood-opacity="0" result="BackgroundImageFix"/>
<feColorMatrix in="SourceAlpha" type="matrix" values="0 0 0 0 0 0 0 0 0 0 0 0 0 0 0 0 0 0 127 0" result="hardAlpha"/>
<feOffset dx="3" dy="1"/>
<feGaussianBlur stdDeviation="5.45"/>
<feComposite in2="hardAlpha" operator="out"/>
<feColorMatrix type="matrix" values="0 0 0 0 0 0 0 0 0 0 0 0 0 0 0 0 0 0 0.25 0"/>
<feBlend mode="normal" in2="BackgroundImageFix" result="effect1_dropShadow_310_41"/>
<feBlend mode="normal" in="SourceGraphic" in2="effect1_dropShadow_310_41" result="shape"/>
</filter>
<clipPath id="clip0_310_41">
<rect width="128" height="128" fill="white" transform="translate(45 47)"/>
</clipPath>
</defs>
</svg>
