<svg width="223" height="223" viewBox="0 0 223 223" fill="none" xmlns="http://www.w3.org/2000/svg">
<g filter="url(#filter0_d_287_134)">
<circle cx="108.5" cy="110.5" r="100.5" fill="black" fill-opacity="0.42" shape-rendering="crispEdges"/>
</g>
<path fill-rule="evenodd" clip-rule="evenodd" d="M108.999 52.103C75.6523 52.103 48.6113 79.138 48.6113 112.491C48.6113 139.173 65.9143 161.808 89.9083 169.794C92.9253 170.354 94.0333 168.484 94.0333 166.889C94.0333 165.449 93.9773 160.692 93.9513 155.646C77.1513 159.299 73.6063 148.521 73.6063 148.521C70.8593 141.541 66.9013 139.685 66.9013 139.685C61.4213 135.937 67.3143 136.015 67.3143 136.015C73.3773 136.44 76.5713 142.238 76.5713 142.238C81.9573 151.468 90.6983 148.8 94.1443 147.258C94.6863 143.355 96.2513 140.69 97.9783 139.182C84.5653 137.657 70.4643 132.478 70.4643 109.339C70.4643 102.746 72.8243 97.359 76.6873 93.129C76.0593 91.609 73.9923 85.467 77.2713 77.149C77.2713 77.149 82.3413 75.526 93.8813 83.339C98.6993 82 103.866 81.327 108.999 81.304C114.129 81.327 119.299 81.998 124.126 83.337C135.652 75.524 140.716 77.147 140.716 77.147C144.003 85.464 141.936 91.607 141.309 93.127C145.181 97.357 147.524 102.744 147.524 109.337C147.524 132.531 133.397 137.637 119.95 139.133C122.117 141.007 124.047 144.683 124.047 150.316C124.047 158.396 123.977 164.899 123.977 166.888C123.977 168.495 125.065 170.378 128.125 169.785C152.105 161.791 169.388 139.163 169.388 112.491C169.387 79.14 142.349 52.103 108.999 52.103Z" fill="white"/>
<path d="M71.4836 138.806C71.3506 139.106 70.8786 139.196 70.4486 138.991C70.0086 138.795 69.7636 138.386 69.9056 138.085C70.0356 137.775 70.5086 137.69 70.9456 137.897C71.3856 138.094 71.6356 138.507 71.4826 138.807L71.4836 138.806ZM73.9296 141.535C73.6426 141.802 73.0796 141.678 72.6976 141.255C72.3016 140.835 72.2276 140.272 72.5206 140.001C72.8186 139.735 73.3646 139.861 73.7606 140.281C74.1546 140.707 74.2326 141.265 73.9306 141.536L73.9296 141.535ZM76.3116 145.012C75.9416 145.27 75.3356 145.029 74.9616 144.492C74.5916 143.954 74.5916 143.309 74.9716 143.052C75.3446 142.794 75.9416 143.027 76.3216 143.559C76.6896 144.104 76.6896 144.75 76.3116 145.012ZM79.5726 148.373C79.2426 148.738 78.5366 148.64 78.0206 148.143C77.4936 147.656 77.3466 146.963 77.6776 146.599C78.0136 146.233 78.7226 146.335 79.2416 146.829C79.7686 147.315 79.9276 148.009 79.5746 148.372L79.5726 148.373ZM84.0726 150.324C83.9256 150.797 83.2476 151.012 82.5626 150.81C81.8796 150.603 81.4326 150.05 81.5726 149.572C81.7126 149.095 82.3956 148.872 83.0846 149.087C83.7676 149.293 84.2146 149.843 84.0726 150.324ZM89.0156 150.685C89.0326 151.183 88.4526 151.595 87.7356 151.605C87.0126 151.622 86.4276 151.218 86.4206 150.728C86.4206 150.225 86.9886 149.818 87.7106 149.804C88.4276 149.791 89.0166 150.191 89.0166 150.684L89.0156 150.685ZM93.6136 149.903C93.6996 150.388 93.2006 150.887 92.4876 151.02C91.7876 151.15 91.1376 150.848 91.0476 150.367C90.9616 149.869 91.4696 149.37 92.1696 149.241C92.8836 149.118 93.5236 149.41 93.6136 149.903Z" fill="white"/>
<defs>
<filter id="filter0_d_287_134" x="0.1" y="0.1" width="222.8" height="222.8" filterUnits="userSpaceOnUse" color-interpolation-filters="sRGB">
<feFlood flood-opacity="0" result="BackgroundImageFix"/>
<feColorMatrix in="SourceAlpha" type="matrix" values="0 0 0 0 0 0 0 0 0 0 0 0 0 0 0 0 0 0 127 0" result="hardAlpha"/>
<feOffset dx="3" dy="1"/>
<feGaussianBlur stdDeviation="5.45"/>
<feComposite in2="hardAlpha" operator="out"/>
<feColorMatrix type="matrix" values="0 0 0 0 0 0 0 0 0 0 0 0 0 0 0 0 0 0 0.25 0"/>
<feBlend mode="normal" in2="BackgroundImageFix" result="effect1_dropShadow_287_134"/>
<feBlend mode="normal" in="SourceGraphic" in2="effect1_dropShadow_287_134" result="shape"/>
</filter>
</defs>
</svg>
