<svg width="223" height="223" viewBox="0 0 223 223" fill="none" xmlns="http://www.w3.org/2000/svg">
<g filter="url(#filter0_d_287_135)">
<circle cx="108.5" cy="110.5" r="100.5" fill="black" fill-opacity="0.42" shape-rendering="crispEdges"/>
</g>
<path d="M55.7031 56.8516V163.297H162.148V56.8516H55.7031ZM112.008 147.554C110.436 150.747 107.437 152.844 103.962 153.856C98.6219 155.083 93.5142 154.384 89.7145 152.103C87.1718 150.543 85.1859 148.142 83.8379 145.375L91.9448 140.41C92.0155 140.44 92.2283 140.825 92.5128 141.322C93.5466 143.054 94.4381 144.281 96.1907 145.142C97.9125 145.729 101.693 146.105 103.152 143.075C104.044 141.533 103.76 136.579 103.76 131.098C103.759 122.484 103.799 113.906 103.799 105.391H113.77C113.77 114.758 113.821 123.629 113.77 132.77C113.792 138.373 114.278 143.369 112.008 147.554ZM153.371 144.737C149.906 156.593 130.582 156.977 122.86 149.145C121.228 147.301 120.206 146.338 119.232 144.21C123.336 141.849 123.336 141.849 127.329 139.539C129.498 142.873 131.503 144.706 135.111 145.457C140.006 146.054 144.931 144.373 143.826 139.174C142.691 134.928 133.803 133.895 127.755 129.354C121.614 125.23 120.175 115.209 125.221 109.483C126.903 107.365 129.771 105.785 132.781 105.025L135.921 104.619C141.951 104.497 145.72 106.09 148.487 109.179C149.257 109.959 149.885 110.801 151.06 112.624C147.848 114.671 147.858 114.651 143.257 117.63C142.275 115.513 140.644 114.185 138.92 113.607C136.245 112.797 132.871 113.678 132.171 116.505C131.928 117.376 131.978 118.187 132.364 119.626C133.448 122.098 137.086 123.173 140.349 124.673C149.743 128.482 152.915 132.567 153.695 137.43C154.446 141.616 153.514 144.332 153.371 144.737Z" fill="#F0DB4F"/>
<defs>
<filter id="filter0_d_287_135" x="0.1" y="0.1" width="222.8" height="222.8" filterUnits="userSpaceOnUse" color-interpolation-filters="sRGB">
<feFlood flood-opacity="0" result="BackgroundImageFix"/>
<feColorMatrix in="SourceAlpha" type="matrix" values="0 0 0 0 0 0 0 0 0 0 0 0 0 0 0 0 0 0 127 0" result="hardAlpha"/>
<feOffset dx="3" dy="1"/>
<feGaussianBlur stdDeviation="5.45"/>
<feComposite in2="hardAlpha" operator="out"/>
<feColorMatrix type="matrix" values="0 0 0 0 0 0 0 0 0 0 0 0 0 0 0 0 0 0 0.25 0"/>
<feBlend mode="normal" in2="BackgroundImageFix" result="effect1_dropShadow_287_135"/>
<feBlend mode="normal" in="SourceGraphic" in2="effect1_dropShadow_287_135" result="shape"/>
</filter>
</defs>
</svg>
