<svg width="223" height="223" viewBox="0 0 223 223" fill="none" xmlns="http://www.w3.org/2000/svg">
<g filter="url(#filter0_d_287_127)">
<circle cx="108.5" cy="110.5" r="100.5" fill="black" fill-opacity="0.42" shape-rendering="crispEdges"/>
</g>
<path fill-rule="evenodd" clip-rule="evenodd" d="M133.037 89.812C134.642 94.455 135.798 99.195 136.178 104.108C136.65 110.203 136.434 116.255 135.149 122.25C135.114 122.415 135.04 122.57 134.985 122.73C134.582 122.731 134.171 122.681 133.777 122.742C130.448 123.265 127.122 123.807 123.796 124.346C120.358 124.903 116.915 125.438 113.483 126.033C112.267 126.243 110.762 125.992 110.271 127.674C110.257 127.72 110.117 127.728 110.036 127.754L110.202 117.703L110.033 93.451L111.635 93.176C114.255 92.747 116.875 92.312 119.497 91.895C122.626 91.398 125.758 90.915 128.889 90.43C130.27 90.215 131.653 90.018 133.037 89.812Z" fill="#439934"/>
<path fill-rule="evenodd" clip-rule="evenodd" d="M106.729 157.054C105.039 155.601 103.29 154.212 101.67 152.684C92.9528 144.462 86.5768 134.785 83.4368 123.118C82.5718 119.907 81.9948 116.644 81.8098 113.326C81.6798 111.004 81.4918 108.661 81.6558 106.351C82.0928 100.207 82.9808 94.122 84.7828 88.204L84.8818 88.066C85.0568 88.299 85.3088 88.505 85.3978 88.768C87.1568 93.948 88.9028 99.132 90.6398 104.319C96.0978 120.619 101.549 136.923 107.016 153.219C107.123 153.537 107.4 153.798 107.599 154.085L106.729 157.054Z" fill="#45A538"/>
<path fill-rule="evenodd" clip-rule="evenodd" d="M133.037 89.812C131.653 90.018 130.269 90.215 128.888 90.428C125.757 90.913 122.625 91.396 119.496 91.893C116.874 92.31 114.254 92.745 111.634 93.174L110.032 93.449L110.02 92.404C109.967 91.545 109.876 90.687 109.866 89.828C109.797 84.35 109.754 78.872 109.686 73.394C109.644 69.965 109.581 66.537 109.511 63.109C109.468 60.979 109.422 58.848 109.326 56.721C109.274 55.578 109.09 54.441 109.015 53.298C108.973 52.641 109.031 51.979 109.044 51.319C109.861 52.902 110.66 54.497 111.5 56.068C112.827 58.552 114.941 60.382 116.844 62.379C124.367 70.271 129.708 79.447 133.037 89.812Z" fill="#46A037"/>
<path fill-rule="evenodd" clip-rule="evenodd" d="M110.035 127.753C110.116 127.727 110.257 127.719 110.27 127.673C110.761 125.991 112.266 126.242 113.482 126.032C116.914 125.438 120.357 124.902 123.795 124.345C127.121 123.806 130.447 123.264 133.776 122.741C134.17 122.679 134.581 122.73 134.984 122.729C134.362 124.949 133.872 127.217 133.083 129.376C132.187 131.825 131.103 134.215 129.952 136.558C128.229 140.053 126.097 143.33 123.599 146.321C121.68 148.629 119.541 150.762 117.397 152.869C116.212 154.034 114.815 154.983 113.515 156.03L113.178 155.8L111.964 154.762L110.708 152.009C109.851 148.798 109.382 145.494 109.314 142.171L109.337 141.61L109.508 139.184C109.565 138.356 109.641 137.529 109.676 136.699C109.805 133.717 109.917 130.735 110.035 127.753Z" fill="#409433"/>
<path fill-rule="evenodd" clip-rule="evenodd" d="M110.036 127.753C109.918 130.735 109.806 133.717 109.679 136.7C109.644 137.53 109.568 138.357 109.511 139.185L108.746 139.474C107.047 134.472 105.347 129.523 103.684 124.561C100.934 116.352 98.2173 108.13 95.4713 99.919C93.2534 93.2915 91.0201 86.6691 88.7713 80.052C88.6663 79.742 88.3643 79.5 88.1543 79.226L93.0503 70.224C93.2183 70.516 93.4403 70.789 93.5463 71.103C95.8138 77.8051 98.0698 84.5111 100.314 91.221C103.23 99.951 106.128 108.688 109.042 117.419C109.158 117.768 109.35 118.09 109.533 118.481L110.203 117.701L110.036 127.753Z" fill="#4FAA41"/>
<path fill-rule="evenodd" clip-rule="evenodd" d="M88.1548 79.227C88.3648 79.501 88.6658 79.743 88.7718 80.053C91.0206 86.6701 93.2539 93.2925 95.4718 99.92C98.2178 108.131 100.935 116.353 103.685 124.562C105.347 129.523 107.047 134.473 108.747 139.475L109.512 139.186L109.341 141.612L109.186 142.171C108.92 144.827 108.696 147.489 108.372 150.139C108.209 151.467 107.863 152.771 107.6 154.086C107.402 153.799 107.124 153.538 107.017 153.22C101.55 136.923 96.0988 120.62 90.6408 104.32C88.9044 99.1326 87.1571 93.949 85.3988 88.769C85.3098 88.506 85.0588 88.3 84.8828 88.067L88.1548 79.227Z" fill="#4AA73C"/>
<path fill-rule="evenodd" clip-rule="evenodd" d="M110.202 117.702L109.532 118.482C109.349 118.091 109.157 117.768 109.041 117.42C106.128 108.689 103.229 99.952 100.313 91.222C98.0684 84.5121 95.8124 77.8061 93.5448 71.104C93.4398 70.79 93.2178 70.516 93.0488 70.225L99.1038 62.26C99.2948 62.515 99.5668 62.742 99.6658 63.029C101.347 67.95 103.013 72.877 104.669 77.807C106.216 82.411 107.74 87.022 109.305 91.62C109.41 91.928 109.775 92.146 110.019 92.406L110.031 93.451C110.089 101.533 110.146 109.618 110.202 117.702Z" fill="#57AE47"/>
<path fill-rule="evenodd" clip-rule="evenodd" d="M110.02 92.404C109.776 92.144 109.411 91.926 109.306 91.618C107.741 87.02 106.217 82.409 104.67 77.805C103.014 72.875 101.348 67.949 99.6675 63.027C99.5685 62.74 99.2965 62.513 99.1055 62.258C101.074 60.33 102.982 58.333 105.03 56.494C106.851 54.86 108.315 53.108 108.382 50.526C108.385 50.419 108.441 50.312 108.527 50.012L109.046 51.318C109.033 51.979 108.974 52.64 109.017 53.297C109.092 54.44 109.276 55.577 109.328 56.72C109.424 58.847 109.47 60.978 109.513 63.108C109.582 66.536 109.645 69.964 109.688 73.393C109.755 78.871 109.799 84.349 109.868 89.827C109.876 90.688 109.966 91.545 110.02 92.404Z" fill="#60B24F"/>
<path fill-rule="evenodd" clip-rule="evenodd" d="M107.599 154.085C107.862 152.77 108.208 151.465 108.371 150.138C108.696 147.489 108.919 144.826 109.185 142.17L109.251 142.16L109.317 142.171C109.385 145.494 109.853 148.798 110.711 152.009C110.535 152.241 110.286 152.448 110.193 152.71C109.466 154.76 108.781 156.826 108.05 158.876C107.95 159.156 107.672 159.374 107.476 159.62L106.729 157.054L107.599 154.085Z" fill="#A9AA88"/>
<path fill-rule="evenodd" clip-rule="evenodd" d="M107.477 159.621C107.673 159.375 107.952 159.157 108.051 158.877C108.782 156.827 109.468 154.762 110.194 152.711C110.287 152.449 110.535 152.242 110.712 152.01L111.967 154.764C111.719 155.116 111.377 155.433 111.239 155.825L108.835 162.884C108.736 163.167 108.398 163.367 108.172 163.606L107.477 159.621Z" fill="#B6B598"/>
<path fill-rule="evenodd" clip-rule="evenodd" d="M108.172 163.605C108.399 163.367 108.736 163.166 108.835 162.883L111.239 155.824C111.376 155.433 111.719 155.115 111.967 154.763L113.182 155.8C112.595 156.38 112.269 157.05 112.465 157.897L112.096 159.105C111.928 159.312 111.685 159.492 111.602 159.729C110.763 162.132 109.962 164.548 109.117 166.951C109.01 167.256 108.713 167.495 108.503 167.763C108.394 166.376 108.283 164.992 108.172 163.605Z" fill="#C2C1A7"/>
<path fill-rule="evenodd" clip-rule="evenodd" d="M108.503 167.763C108.712 167.494 109.009 167.255 109.117 166.951C109.962 164.549 110.763 162.133 111.602 159.729C111.685 159.493 111.927 159.312 112.096 159.105L111.587 164.65C111.451 164.807 111.254 164.944 111.189 165.127C110.614 166.741 110.072 168.367 109.495 169.981C109.376 170.314 109.148 170.608 108.97 170.919C108.812 170.712 108.529 170.512 108.516 170.296C108.465 169.455 108.5 168.608 108.503 167.763Z" fill="#CECDB7"/>
<path fill-rule="evenodd" clip-rule="evenodd" d="M108.969 170.919C109.147 170.607 109.375 170.313 109.494 169.981C110.072 168.368 110.613 166.742 111.188 165.127C111.253 164.944 111.451 164.808 111.586 164.65L111.598 168.29L110.38 171.414L108.969 170.919Z" fill="#DBDAC7"/>
<path fill-rule="evenodd" clip-rule="evenodd" d="M110.381 171.415L111.599 168.291L111.85 171.987L110.381 171.415Z" fill="#EBE9DC"/>
<path fill-rule="evenodd" clip-rule="evenodd" d="M112.463 157.898C112.267 157.051 112.592 156.38 113.18 155.801L113.517 156.031L112.463 157.898Z" fill="#CECDB7"/>
<path fill-rule="evenodd" clip-rule="evenodd" d="M109.316 142.172L109.25 142.161L109.184 142.171L109.339 141.612L109.316 142.172Z" fill="#4FAA41"/>
<defs>
<filter id="filter0_d_287_127" x="0.1" y="0.1" width="222.8" height="222.8" filterUnits="userSpaceOnUse" color-interpolation-filters="sRGB">
<feFlood flood-opacity="0" result="BackgroundImageFix"/>
<feColorMatrix in="SourceAlpha" type="matrix" values="0 0 0 0 0 0 0 0 0 0 0 0 0 0 0 0 0 0 127 0" result="hardAlpha"/>
<feOffset dx="3" dy="1"/>
<feGaussianBlur stdDeviation="5.45"/>
<feComposite in2="hardAlpha" operator="out"/>
<feColorMatrix type="matrix" values="0 0 0 0 0 0 0 0 0 0 0 0 0 0 0 0 0 0 0.25 0"/>
<feBlend mode="normal" in2="BackgroundImageFix" result="effect1_dropShadow_287_127"/>
<feBlend mode="normal" in="SourceGraphic" in2="effect1_dropShadow_287_127" result="shape"/>
</filter>
</defs>
</svg>
