<svg width="223" height="223" viewBox="0 0 223 223" fill="none" xmlns="http://www.w3.org/2000/svg">
<g filter="url(#filter0_d_287_133)">
<circle cx="108.5" cy="110.5" r="100.5" fill="black" fill-opacity="0.42" shape-rendering="crispEdges"/>
</g>
<g clip-path="url(#clip0_287_133)">
<path d="M115.673 53.3594C114.866 53.3594 114.059 53.5381 113.342 53.8068C114.866 54.7933 115.673 56.1373 116.121 57.6611C116.121 57.8408 116.211 58.0205 116.211 58.1992C116.211 58.3789 116.301 58.5577 116.301 58.7365C116.391 61.3366 115.583 61.6951 115.046 63.2188C114.149 65.19 114.419 67.3417 115.494 69.0443C115.584 69.224 115.674 69.4935 115.853 69.6723C114.687 62.1434 120.961 61.0671 122.126 58.7365C122.216 56.6755 120.514 55.3314 119.169 54.3449C117.825 53.5381 116.748 53.3585 115.674 53.3585L115.673 53.3594ZM125.086 54.9712C124.996 55.6881 125.086 55.5093 124.996 55.8678C124.996 56.1364 124.996 56.4051 124.906 56.6746C124.816 56.9432 124.816 57.1229 124.727 57.3915C124.637 57.6611 124.548 57.8399 124.458 58.1085C124.368 58.2882 124.278 58.467 124.188 58.7356C124.099 58.8255 124.01 59.0051 123.921 59.095C123.831 59.1848 123.831 59.2738 123.741 59.3636C123.561 59.5433 123.471 59.811 123.293 59.9907L122.755 60.5289C122.576 60.7086 122.396 60.8874 122.217 60.9763C121.59 61.4255 120.873 61.7831 120.245 62.2314C120.065 62.4111 119.797 62.501 119.618 62.6797C119.438 62.8594 119.259 62.9493 119.08 63.1281L118.543 63.6653C118.363 63.845 118.183 64.0247 118.093 64.2933C117.915 64.473 117.825 64.7417 117.646 64.9205C117.556 65.19 117.466 65.3688 117.288 65.6374C117.198 65.9069 117.108 66.0866 117.018 66.3544C116.928 66.6239 116.839 66.8925 116.839 67.0713C116.839 67.1612 116.839 67.3408 116.749 67.4307C116.749 67.5205 116.749 67.6993 116.659 67.7892V69.0434C116.659 69.3129 116.659 69.4926 116.749 69.7603C116.749 70.0299 116.839 70.2096 116.929 70.4782C117.019 70.7468 117.109 70.9256 117.199 71.1951C117.288 71.3748 117.377 71.4638 117.377 71.6435L110.564 69.0434C109.441 68.703 108.305 68.4043 107.159 68.1476C106.531 67.968 105.904 67.8781 105.276 67.6984C103.498 67.3423 101.703 67.0733 99.8982 66.8925H99.7186C97.9262 66.7128 96.2236 66.623 94.4313 66.623C93.0863 66.623 91.8312 66.7128 90.577 66.8027C88.7837 66.8925 86.9922 67.1621 85.1989 67.4307L83.8539 67.6993C82.9582 67.879 82.0616 68.0578 81.1649 68.3264C80.7166 68.4163 80.2692 68.596 79.8209 68.6858C79.3725 68.8646 78.9242 69.0434 78.5657 69.2231C78.2073 69.4028 77.9386 69.4926 77.5802 69.6714C77.4903 69.6714 77.4903 69.6714 77.4005 69.7612C77.1309 69.94 76.8632 70.0299 76.5937 70.2087C76.5038 70.2087 76.414 70.2985 76.414 70.2985C76.0564 70.4782 75.7869 70.6579 75.5182 70.7468C75.3386 70.8367 75.0699 70.9265 74.8911 71.0163C74.8013 71.1053 74.7114 71.1053 74.6216 71.1951C74.353 71.3748 74.0843 71.4638 73.8148 71.6426C73.5462 71.8222 73.2775 71.9121 73.0979 72.0918C72.9182 72.2706 72.6495 72.3604 72.4707 72.5392C72.4707 72.5392 72.3809 72.5392 72.3809 72.629C72.2012 72.7189 72.0224 72.8986 71.8436 73.0774L71.7538 73.1672C71.5741 73.2571 71.4843 73.4358 71.3055 73.5257C71.2156 73.5257 71.2156 73.6155 71.1258 73.6155C70.947 73.7054 70.8571 73.8842 70.6784 73.9731C70.6784 74.063 70.5885 74.063 70.5885 74.063L70.0504 74.6011L69.9605 74.691L69.4232 75.2282C69.4232 75.2282 69.4232 75.3181 69.3334 75.3181L68.8851 75.7664C68.7952 75.8562 68.7054 75.8562 68.7054 75.9461L68.1681 76.4833C68.1681 76.5732 68.0783 76.5732 68.0783 76.663L67.3613 77.3791L67.2715 77.4689C66.8241 78.0071 66.2859 78.4554 65.7486 78.9037C65.2105 79.3512 64.6723 79.7995 64.0452 80.2478C63.4181 80.6961 62.8799 81.0546 62.2528 81.4131C61.6248 81.7715 60.9977 82.0402 60.3706 82.3097C59.7426 82.5783 59.1155 82.847 58.4884 83.0267C57.2332 83.2962 55.9781 83.8335 54.9027 83.9224C54.9027 83.475 54.6332 83.5639 54.3645 83.5639C54.0959 83.6538 53.8273 83.6538 53.6476 83.7436C53.378 83.8335 53.1993 83.9233 52.9306 84.0131C52.675 84.0955 52.4332 84.216 52.2137 84.3707C52.034 84.5504 51.7654 84.6403 51.5866 84.8199C51.4069 84.9987 51.1373 85.1775 50.9586 85.3572C50.7789 85.5369 50.5102 85.7157 50.3314 85.8945C50.1518 86.0742 49.9721 86.2539 49.7933 86.5225C49.6136 86.7911 49.4348 86.9699 49.345 87.2394C49.1662 87.4191 49.0763 87.6878 48.8975 87.9564C48.8077 88.2259 48.628 88.4937 48.5382 88.7632L48.2695 89.57C48.1797 89.8386 48.1797 90.0174 48.0898 90.2869V90.3768C48 90.6463 48 91.0039 48 91.1836C48.0898 91.0937 48.0898 91.2734 48.0898 91.4522V91.8107C48.0898 91.9904 48.1797 92.1692 48.1797 92.348C48.2695 92.5276 48.2695 92.7073 48.3594 92.8861C48.4483 93.0658 48.5382 93.2446 48.717 93.4243C48.8068 93.604 48.9865 93.7828 49.0763 93.9615C49.2551 94.1412 49.4339 94.3209 49.6136 94.4099C49.7933 94.5896 49.9721 94.7692 50.1509 94.8582C50.8678 95.4853 51.0475 95.665 51.9441 96.2022C52.1238 96.2921 52.2128 96.3819 52.3925 96.4718H52.4823V96.6515C52.4823 96.9192 52.5721 97.0989 52.6611 97.3675C52.7509 97.6371 52.8408 97.9057 52.9306 98.0845L53.1984 98.6226C53.1984 98.7125 53.2882 98.7125 53.2882 98.8023C53.378 99.071 53.5577 99.2498 53.6476 99.4294C53.8264 99.6091 53.9162 99.8778 54.095 100.057L54.6332 100.595L55.1704 101.132H55.2603C55.44 101.312 55.6188 101.402 55.7984 101.581C55.9781 101.761 56.2468 101.85 56.4255 101.939C56.6052 102.029 56.8739 102.208 57.1425 102.298C57.3222 102.388 57.5019 102.477 57.7696 102.477C57.7696 102.477 57.8595 102.477 57.8595 102.567C57.9493 102.567 58.129 102.657 58.2188 102.657C58.129 104.269 58.129 105.793 58.3087 106.331C58.5764 106.958 59.9214 105.076 61.1765 103.015C60.9968 105.076 60.907 107.497 61.1765 108.213C61.535 108.93 63.2375 106.6 64.8511 104.09C85.8251 99.2498 105.007 113.77 107.069 134.297C106.709 131.07 102.765 129.277 100.884 129.726C99.9872 131.877 98.4634 134.745 96.0439 136.448C96.2227 134.476 96.1338 132.504 95.7744 130.532C95.1473 133.221 93.8922 135.821 92.0998 137.972C89.3209 138.151 86.4531 136.806 85.0183 134.745C84.9285 134.655 84.8386 134.476 84.7497 134.386C84.6598 134.207 84.57 133.938 84.4802 133.759C84.3903 133.579 84.3014 133.31 84.3014 133.132V132.056C84.3014 131.877 84.3912 131.607 84.4811 131.428C84.5709 131.249 84.5709 130.98 84.6607 130.801C84.7497 130.621 84.8395 130.353 85.0183 130.174C85.5565 128.739 85.5565 127.574 84.57 126.947L84.0327 126.677C83.9429 126.677 83.7632 126.588 83.6734 126.588C83.5835 126.588 83.4946 126.498 83.4047 126.498C83.2259 126.409 82.9573 126.409 82.7776 126.319C82.5979 126.229 82.3293 126.229 82.1505 126.229C81.9708 126.229 81.7013 126.14 81.5225 126.14H81.0751C80.8055 126.14 80.6259 126.14 80.4471 126.23C80.2674 126.23 79.9987 126.32 79.82 126.32C79.6403 126.41 79.3716 126.41 79.192 126.499C79.0132 126.588 78.8335 126.678 78.5648 126.767L78.0267 127.037C71.1249 131.518 75.2487 142.094 79.9098 145.142C78.1165 145.501 76.3241 145.859 75.786 146.218L75.6961 146.308C76.9512 147.114 78.2962 147.742 79.7301 148.279C81.6123 148.907 83.6743 149.445 84.57 149.714C86.9904 150.251 89.5006 150.431 92.01 150.251C105.097 149.355 115.853 139.316 117.824 126.23C117.914 126.499 117.914 126.767 118.004 127.037C118.093 127.574 118.183 128.112 118.273 128.739C118.363 129.009 118.363 129.277 118.363 129.546V129.636C118.363 129.905 118.452 130.174 118.452 130.443C118.452 130.801 118.542 131.07 118.542 131.428V135.193C118.542 135.462 118.452 135.642 118.452 135.91V136.179C118.452 136.449 118.362 136.717 118.362 137.076C118.272 137.344 118.272 137.613 118.182 137.883V137.972C118.092 138.241 118.092 138.51 118.004 138.778V138.868C117.914 139.138 117.914 139.406 117.824 139.675V139.765L117.555 140.572V140.661C117.465 140.93 117.376 141.289 117.287 141.557C117.197 141.827 117.107 142.095 116.927 142.454C116.838 142.722 116.748 143.081 116.57 143.35C116.48 143.619 116.3 143.888 116.21 144.246C116.121 144.516 115.942 144.784 115.853 145.053C115.853 145.143 115.763 145.233 115.763 145.233C115.763 145.233 115.763 145.323 115.673 145.323C113.791 149.176 110.923 152.582 107.337 155.271C107.068 155.451 106.889 155.63 106.62 155.809C106.531 155.899 106.441 155.899 106.441 155.989C106.261 156.168 105.992 156.257 105.814 156.436L105.903 156.616C106.351 156.526 106.71 156.526 107.158 156.436C107.964 156.346 108.681 156.167 109.488 155.988C109.668 155.988 109.937 155.898 110.116 155.808C110.296 155.808 110.385 155.718 110.564 155.718C110.742 155.718 111.013 155.629 111.192 155.629C111.371 155.54 111.55 155.54 111.729 155.45C114.687 154.734 117.555 153.747 120.334 152.582C115.583 159.035 109.309 164.235 101.959 167.64C105.365 167.371 108.771 166.834 112.087 165.847C123.996 162.351 134.044 154.299 140.053 143.439C138.799 150.251 136.109 156.795 132.076 162.531C134.944 160.649 137.544 158.407 139.964 155.988C146.596 149.086 150.988 140.212 152.423 130.801C153.409 135.462 153.768 140.302 153.319 145.053C174.742 115.205 155.112 84.2818 146.866 76.1249C146.866 76.035 146.776 76.035 146.776 75.9452C146.776 76.3046 146.776 76.6621 146.686 77.0215C146.596 77.7385 146.506 78.3656 146.417 78.9927C146.238 79.6207 146.059 80.3376 145.879 80.9647C145.7 81.5928 145.431 82.2199 145.162 82.847C144.893 83.475 144.624 84.1021 144.266 84.6403C143.907 85.1784 143.549 85.8055 143.19 86.3428C142.832 86.881 142.384 87.4182 141.935 87.9564C141.488 88.4946 141.039 88.942 140.501 89.4801C140.232 89.7497 139.964 90.0183 139.606 90.1971C139.336 90.3768 139.156 90.5565 138.888 90.8242C138.35 91.2734 137.812 91.631 137.185 91.9895C136.647 92.3489 136.02 92.7073 135.393 92.976L133.51 93.7828C132.883 94.0514 132.255 94.2311 131.627 94.4099C131 94.5896 130.283 94.7692 129.655 94.8582C128.938 94.948 128.311 95.0379 127.684 95.1277C127.235 95.1277 126.698 95.2167 126.249 95.2167C125.532 95.2167 124.905 95.1268 124.278 95.1268C123.56 95.037 122.933 94.9471 122.306 94.8573C121.626 94.7746 120.962 94.5936 120.334 94.32C120.961 94.2302 121.678 94.2302 122.306 94.0514C123.023 93.9615 123.65 93.7819 124.278 93.6031C124.905 93.4234 125.622 93.2446 126.16 92.976L128.043 92.1692C128.67 91.8996 129.208 91.5421 129.835 91.1836C130.373 90.8242 131 90.3768 131.539 90.0183C132.076 89.5691 132.614 89.1217 133.062 88.6733C133.6 88.225 134.048 87.6878 134.496 87.2394C134.944 86.7013 135.393 86.164 135.751 85.6258C135.841 85.536 135.841 85.4462 135.931 85.3563C136.199 84.9089 136.557 84.3707 136.827 83.9233C137.161 83.344 137.46 82.7452 137.722 82.13C137.992 81.5029 138.262 80.8749 138.44 80.2478L138.978 78.3656C139.067 77.6486 139.247 77.0215 139.247 76.3935C139.337 75.6765 139.337 75.0494 139.337 74.4214C139.337 73.974 139.337 73.4358 139.247 72.9875C139.157 72.2706 139.067 71.6435 138.978 71.0155C138.888 70.2985 138.708 69.6714 138.529 69.0434C138.35 68.4163 138.081 67.7892 137.902 67.1612C137.633 66.534 137.364 65.9069 137.095 65.3688C136.737 64.7417 136.468 64.2035 136.11 63.5764C135.75 63.0382 135.303 62.5001 134.944 61.9628C134.496 61.4246 134.048 60.9763 133.6 60.439C133.331 60.1695 133.062 59.9009 132.793 59.7221C131.449 58.6467 130.104 57.75 128.67 56.8534C128.49 56.7635 128.311 56.6737 128.043 56.5839C126.877 55.5992 125.982 55.3296 125.086 54.9712Z" fill="#DF234F"/>
</g>
<defs>
<filter id="filter0_d_287_133" x="0.1" y="0.1" width="222.8" height="222.8" filterUnits="userSpaceOnUse" color-interpolation-filters="sRGB">
<feFlood flood-opacity="0" result="BackgroundImageFix"/>
<feColorMatrix in="SourceAlpha" type="matrix" values="0 0 0 0 0 0 0 0 0 0 0 0 0 0 0 0 0 0 127 0" result="hardAlpha"/>
<feOffset dx="3" dy="1"/>
<feGaussianBlur stdDeviation="5.45"/>
<feComposite in2="hardAlpha" operator="out"/>
<feColorMatrix type="matrix" values="0 0 0 0 0 0 0 0 0 0 0 0 0 0 0 0 0 0 0.25 0"/>
<feBlend mode="normal" in2="BackgroundImageFix" result="effect1_dropShadow_287_133"/>
<feBlend mode="normal" in="SourceGraphic" in2="effect1_dropShadow_287_133" result="shape"/>
</filter>
<clipPath id="clip0_287_133">
<rect width="115" height="115" fill="white" transform="translate(48 53)"/>
</clipPath>
</defs>
</svg>
