<svg width="223" height="223" viewBox="0 0 223 223" fill="none" xmlns="http://www.w3.org/2000/svg">
<g filter="url(#filter0_d_310_42)">
<circle cx="108.5" cy="110.5" r="100.5" fill="black" fill-opacity="0.42" shape-rendering="crispEdges"/>
</g>
<g clip-path="url(#clip0_310_42)">
<path d="M121.25 47.25L134.309 47.336C134.555 47.527 134.754 47.652 134.965 47.746C137.332 48.816 139.898 49.582 142.031 51.004C148.215 55.114 154.254 59.445 160.289 63.774C163.094 65.781 165.859 67.871 168.445 70.144C170.367 71.832 171.23 74.227 171.235 76.781L171.23 157.152C171.227 158.273 171.035 159.426 170.723 160.504C169.305 165.418 166.16 168.781 161.211 170.094C158.601 170.785 155.844 171 153.137 171.223C148.914 171.574 144.676 171.746 140.445 172L132.441 172.5L119.625 173.254L111.746 173.746L98.8049 174.496L92.1169 174.77C91.9019 174.781 91.7029 175.082 91.4999 175.25C86.4099 175.25 81.3239 175.25 76.1909 175.168C75.9449 174.973 75.7579 174.816 75.5389 174.754C72.4369 173.855 69.8359 172.141 67.8359 169.652C65.0659 166.211 62.4339 162.664 59.7699 159.141C56.4959 154.812 53.1369 150.547 50.0429 146.094C48.2243 143.492 47.2503 140.394 47.2529 137.219C47.2442 113.482 47.2472 89.745 47.2619 66.008C47.2619 65.324 47.3819 64.633 47.4999 63.953C48.7419 56.645 54.1519 52.746 60.5859 52.023C63.9259 51.648 67.2889 51.48 70.6449 51.258L79.5149 50.746L83.3279 50.496L94.8279 49.504L101.203 49.004L111.762 48.254L120.632 47.73C120.848 47.715 121.047 47.418 121.25 47.25ZM70.9449 161.184C71.4769 161.875 72.0699 162.531 72.5349 163.266C74.7889 166.793 78.0199 168.074 82.1249 167.801L109.934 166.145L141.23 164.254L156.812 163.25C161.43 162.879 163.66 160.383 163.75 155.75V154.75L163.785 78.887C163.789 76.602 163 75.004 161.172 73.727L139.148 58.207C135.605 55.629 131.844 54.426 127.488 54.77L102.824 56.594L77.0349 58.496L60.8479 59.758C57.5779 60.058 55.5509 62.058 54.9649 65.266C54.8217 66.0848 54.7524 66.9148 54.7579 67.746L54.6909 133.988C54.6679 138.328 55.9959 141.938 58.5939 145.258L70.9449 161.184Z" fill="white"/>
<path d="M70.8877 161.117L58.5947 145.257C55.9967 141.937 54.6687 138.328 54.6917 133.988L54.7587 67.746C54.7587 66.918 54.8207 66.078 54.9657 65.266C55.5517 62.059 57.5787 60.059 60.8487 59.758L77.0357 58.496L102.826 56.594L127.489 54.77C131.845 54.426 135.606 55.629 139.149 58.207C146.411 63.492 153.809 68.59 161.173 73.727C163.001 75.004 163.79 76.602 163.786 78.887L163.751 154.754V155.754C163.661 160.383 161.431 162.879 156.813 163.25C151.626 163.668 146.427 163.938 141.231 164.254L109.935 166.144L82.1257 167.801C78.0207 168.074 74.7897 166.793 72.5357 163.266C72.0707 162.531 71.4777 161.875 70.8877 161.117ZM77.2937 115.125V148.613L77.3017 154.859C77.3557 157.66 78.7277 159.055 81.5277 159.215C82.2307 159.254 82.9417 159.23 83.6487 159.187L107.091 157.805L151.856 155.246C154.646 155.09 155.935 153.867 156.196 151.102C156.247 150.605 156.231 150.102 156.231 149.602L156.235 85.125C156.235 84.75 156.247 84.375 156.224 84C156.056 81.434 154.954 80.387 152.404 80.523L129.333 81.852C118.526 82.4807 107.72 83.1133 96.9147 83.75L80.7077 84.723C78.6417 84.855 77.7077 85.746 77.3957 87.766C77.322 88.3017 77.2892 88.8423 77.2977 89.383L77.2937 115.125ZM134.466 62.398C132.509 61.336 130.384 60.984 128.196 61.105C124.833 61.289 121.47 61.566 118.106 61.809L70.1567 65.293C68.7077 65.398 67.2507 65.503 65.8207 65.762C65.3407 65.848 64.7347 66.332 64.5867 66.77C64.4767 67.078 64.9617 67.7 65.3167 68.04C65.9737 68.668 66.7307 69.195 67.4467 69.762C69.1457 71.102 70.9537 72.324 72.5127 73.805C75.4697 76.613 78.9107 77.262 82.8527 76.977L113.888 75.031L147.298 73.027C147.603 73.012 147.908 72.918 148.579 72.793C147.966 72.156 147.61 71.668 147.146 71.324C145.509 70.1152 143.856 68.9277 142.189 67.762C139.626 65.9567 137.052 64.1686 134.466 62.398Z" fill="black"/>
<path d="M77.2922 115L77.2962 89.3831C77.2962 88.8431 77.3122 88.2971 77.3942 87.7661C77.7062 85.7461 78.6402 84.8561 80.7062 84.7231L96.9132 83.7501L129.331 81.8521L152.401 80.5231C154.952 80.3871 156.054 81.4371 156.221 84.0001C156.245 84.3751 156.233 84.7501 156.233 85.1251L156.229 149.602L156.194 151.102C155.933 153.867 154.644 155.09 151.854 155.246L107.089 157.805L83.6472 159.187L81.5272 159.215C78.7262 159.055 77.3542 157.66 77.3002 154.863L77.2922 148.613V115ZM123.058 115.066L110.19 95.4611C109.741 94.7771 109.3 94.5511 108.472 94.6411L102.987 95.0111L92.8972 95.7501C90.4172 95.9771 88.9172 98.3091 89.6042 100.727L94.9482 101.184V144.477L91.3082 145.504C89.6942 145.98 89.0032 147.34 89.5462 149.078L101.854 148.371L106.702 147.973C108.792 147.629 109.917 146.348 110.198 144.258L103.468 142.723V110.16L103.968 110.86L119.436 135.012C121.71 138.539 124.045 142.026 126.44 145.472C128.147 147.922 130.663 148.672 133.491 148.062C135.261 147.684 136.96 146.965 138.694 146.406C139.597 146.113 139.905 145.574 139.901 144.562L139.871 100.062C139.871 97.4611 139.871 97.4611 142.444 96.9421C145.046 96.4181 145.698 95.3791 145.104 92.5981L129.554 93.5431C127.862 93.6641 126.581 95.0781 126.324 96.7231C126.198 97.5161 126.362 97.9531 127.311 98.0081L132.019 98.5281V128.707C129.037 124.158 126.05 119.612 123.058 115.07V115.066ZM134.549 62.4411C137.102 64.2038 139.647 65.9772 142.185 67.7611C143.853 68.9271 145.506 70.1149 147.143 71.3241C147.607 71.6681 147.963 72.1561 148.576 72.7931L147.295 73.0271L113.885 75.0311L82.8502 76.9771C78.9082 77.2621 75.4672 76.6131 72.5102 73.8051C70.9512 72.3251 69.1432 71.1021 67.4432 69.7621C66.7282 69.1951 65.9712 68.6681 65.3142 68.0391C64.9592 67.6991 64.4742 67.0791 64.5842 66.7691C64.7322 66.3321 65.3422 65.8481 65.8182 65.7621C67.2482 65.5041 68.7052 65.3981 70.1542 65.2931L118.104 61.8091L128.194 61.1051C130.381 60.9851 132.506 61.3351 134.549 62.4411Z" fill="white"/>
<path d="M123.114 115.14L132.021 128.707V98.527L127.314 98.007C126.364 97.953 126.2 97.516 126.325 96.723C126.583 95.078 127.865 93.664 129.555 93.543L145.106 92.598C145.7 95.378 145.048 96.418 142.446 96.941C139.872 97.457 139.872 97.457 139.872 100.062L139.903 144.562C139.907 145.574 139.599 146.113 138.696 146.406L133.493 148.062C130.665 148.668 128.149 147.922 126.443 145.472C124.049 142.026 121.714 138.539 119.439 135.012L103.969 110.859C103.86 110.687 103.735 110.527 103.469 110.16V142.723L110.2 144.258C109.919 146.348 108.794 147.628 106.704 147.973C105.11 148.234 103.474 148.273 101.856 148.371L89.5479 149.078C89.0049 147.34 89.6959 145.98 91.3099 145.504L94.9499 144.477V101.184L89.6059 100.727C88.9189 98.309 90.4189 95.977 92.8989 95.75C96.2549 95.437 99.6259 95.246 102.989 95.012C104.817 94.887 106.653 94.84 108.474 94.641C109.302 94.551 109.744 94.777 110.192 95.461L123.114 115.14Z" fill="black"/>
</g>
<defs>
<filter id="filter0_d_310_42" x="0.1" y="0.1" width="222.8" height="222.8" filterUnits="userSpaceOnUse" color-interpolation-filters="sRGB">
<feFlood flood-opacity="0" result="BackgroundImageFix"/>
<feColorMatrix in="SourceAlpha" type="matrix" values="0 0 0 0 0 0 0 0 0 0 0 0 0 0 0 0 0 0 127 0" result="hardAlpha"/>
<feOffset dx="3" dy="1"/>
<feGaussianBlur stdDeviation="5.45"/>
<feComposite in2="hardAlpha" operator="out"/>
<feColorMatrix type="matrix" values="0 0 0 0 0 0 0 0 0 0 0 0 0 0 0 0 0 0 0.25 0"/>
<feBlend mode="normal" in2="BackgroundImageFix" result="effect1_dropShadow_310_42"/>
<feBlend mode="normal" in="SourceGraphic" in2="effect1_dropShadow_310_42" result="shape"/>
</filter>
<clipPath id="clip0_310_42">
<rect width="128" height="128" fill="white" transform="translate(45 47)"/>
</clipPath>
</defs>
</svg>
