<svg width="223" height="223" viewBox="0 0 223 223" fill="none" xmlns="http://www.w3.org/2000/svg">
<g filter="url(#filter0_d_310_44)">
<circle cx="108.5" cy="110.5" r="100.5" fill="black" fill-opacity="0.42" shape-rendering="crispEdges"/>
</g>
<path d="M158.117 73.0661C137.168 45.9381 98.1913 40.9301 71.0623 61.8831C43.9373 82.8361 38.9343 121.813 59.8873 148.938C80.8443 176.062 119.824 181.062 146.945 160.105C174.059 139.152 179.063 100.187 158.117 73.0661Z" fill="#F37036"/>
<path d="M136.078 71.164C133.941 71.3347 131.915 72.1848 130.297 73.59C128.402 75.2348 127.193 77.5302 126.908 80.0229C126.623 82.5157 127.283 85.0248 128.757 87.055C130.229 89.086 132.409 90.4915 134.867 90.9942C137.325 91.4968 139.881 91.06 142.033 89.77H142.035L142.191 89.926C142.899 89.5197 143.559 89.0332 144.156 88.476C145.997 86.5278 147.011 83.9406 146.981 81.26C146.952 78.5793 145.883 76.0147 144 74.107V74.105L135.156 82.894L135 82.739L143.844 73.946C142.82 72.959 141.598 72.2007 140.26 71.7214C138.921 71.2422 137.495 71.0528 136.078 71.166V71.164ZM124.434 85.551C120.194 85.544 113.271 90.35 96.3669 107.254L96.4509 107.34C96.3589 107.308 96.2659 107.305 96.2659 107.305L89.9019 113.613C89.7385 113.768 89.6303 113.973 89.5938 114.196C89.5574 114.418 89.5946 114.647 89.6999 114.846C89.8052 115.045 89.9727 115.205 90.1771 115.301C90.3814 115.396 90.6113 115.422 90.8319 115.375L101.746 113.047C101.794 113.002 101.826 112.942 101.838 112.877L102.08 113.127L98.3599 116.817H98.1799L76.0939 139.077L83.1799 145.901C83.3781 146.08 83.628 146.19 83.8935 146.217C84.1589 146.244 84.426 146.185 84.6559 146.05C84.8878 145.916 85.0735 145.714 85.1886 145.472C85.3038 145.23 85.3429 144.959 85.3009 144.694L84.2659 140.194C84.2014 140.103 84.1667 139.995 84.1667 139.884C84.1667 139.773 84.2014 139.664 84.2659 139.574C93.94 134.962 102.936 129.046 111.004 121.991L106.469 117.454L106.555 117.44L103.865 114.751L104.037 114.577L104.219 114.763L104.125 114.854L111.262 122.147V122.144C124.942 109.19 134.652 98.777 132.127 91.769C132.012 90.9309 131.623 90.1545 131.02 89.561V89.565C130.867 89.4509 130.705 89.3486 130.537 89.259C130.454 89.171 130.381 89.081 130.293 88.995L130.227 89.061C130.042 88.9478 129.847 88.8507 129.645 88.771L129.934 88.479C128.138 86.879 126.654 85.555 124.434 85.549V85.551ZM75.9399 139.21L70.7689 144.382V144.386C70.5834 144.501 70.4391 144.672 70.357 144.874C70.2748 145.076 70.2591 145.299 70.3119 145.511C70.3629 145.723 70.4794 145.913 70.6447 146.054C70.8101 146.196 71.0159 146.282 71.2329 146.3L83.9049 147.175L75.9399 139.21Z" fill="white"/>
<path d="M136.95 70.3099C134.048 70.3063 131.261 71.4451 129.191 73.4799C127.719 74.9869 126.71 76.8855 126.287 78.9495C125.863 81.0134 126.042 83.1557 126.801 85.1209C122.06 83.0909 115.646 86.6309 95.6952 106.578C95.6812 106.609 95.6688 106.64 95.6582 106.672C95.6175 106.69 95.5777 106.711 95.5392 106.734L89.2302 113.098C88.9278 113.395 88.7292 113.781 88.6638 114.2C88.5984 114.618 88.6697 115.047 88.8672 115.422C89.0435 115.719 89.2931 115.965 89.592 116.137C89.891 116.31 90.2292 116.402 90.5742 116.406L90.8872 116.203L99.3112 114.406L95.2812 118.473C95.2577 118.526 95.2396 118.582 95.2272 118.639L75.4772 138.438C75.3985 138.504 75.3333 138.585 75.2852 138.676L70.1992 143.766C69.9457 144.033 69.7725 144.367 69.6993 144.728C69.6261 145.089 69.6559 145.464 69.7852 145.809C69.9178 146.152 70.1427 146.452 70.4349 146.675C70.7272 146.898 71.0754 147.036 71.4412 147.074L84.0592 147.954C84.2744 147.878 84.4577 147.732 84.5792 147.539C84.6877 147.388 84.7461 147.207 84.7461 147.021C84.7461 146.836 84.6877 146.655 84.5792 146.504L84.5532 146.479C84.8255 146.336 85.0655 146.139 85.2582 145.899C85.4609 145.636 85.6024 145.331 85.6727 145.007C85.7429 144.682 85.74 144.346 85.6642 144.023L84.6802 139.836C94.1206 135.324 102.966 129.661 111.014 122.975C111.092 123.019 111.176 123.054 111.262 123.078C111.516 123.059 111.754 122.95 111.934 122.77C125.484 109.94 133.449 101.148 133.449 94.1679C133.479 93.1997 133.333 92.2342 133.018 91.3179C134.239 91.8243 135.542 92.1055 136.863 92.1479L136.848 92.1519C138.668 92.0963 140.447 91.5987 142.031 90.7019C142.033 90.7023 142.034 90.7026 142.035 90.7029C142.24 90.7644 142.461 90.7447 142.652 90.6479C143.417 90.1977 144.114 89.6416 144.722 88.9959C145.753 87.9841 146.573 86.7769 147.132 85.4449C147.691 84.1128 147.98 82.6827 147.98 81.2379C147.98 79.7933 147.692 78.3632 147.133 77.0311C146.573 75.6991 145.754 74.4919 144.723 73.4799C144.686 73.4465 144.647 73.4161 144.605 73.3889C142.547 71.4124 139.803 70.3093 136.949 70.3109L136.95 70.3099ZM136.863 72.0819C138.884 72.094 140.846 72.7661 142.449 73.9959L134.381 82.1129C134.354 82.1437 134.328 82.1764 134.305 82.2109C134.16 82.3581 134.075 82.5542 134.066 82.7609C134.066 82.8858 134.094 83.0091 134.149 83.1216C134.203 83.2342 134.282 83.333 134.379 83.4109H134.381L140.481 89.5109C138.811 90.2391 136.961 90.446 135.171 90.1046C133.382 89.7633 131.738 88.8896 130.453 87.5979C127.867 84.9979 127.117 81.0939 128.5 77.7069C129.883 74.3169 133.18 72.1019 136.863 72.0819ZM143.983 75.5139C145.302 77.11 146.022 79.1173 146.016 81.1879C146.012 83.6137 145.046 85.9388 143.328 87.6519C142.984 87.9759 142.617 88.275 142.23 88.5469L137.307 83.6999L136.344 82.7369L136.609 82.4719L143.982 75.5119L143.983 75.5139ZM143.617 79.7069C143.436 79.6498 143.241 79.6608 143.067 79.7379C142.896 79.8268 142.766 79.9799 142.707 80.1639C142.678 80.2558 142.668 80.3525 142.676 80.4484C142.685 80.5444 142.712 80.6377 142.757 80.7229C142.935 81.0965 143.005 81.5123 142.96 81.9235C142.914 82.3347 142.755 82.7251 142.5 83.0509C142.435 83.1139 142.384 83.1899 142.35 83.274C142.317 83.3581 142.301 83.4484 142.305 83.5389C142.309 83.7229 142.375 83.8989 142.5 84.0309C142.634 84.0819 142.781 84.0819 142.914 84.0309C143.034 84.061 143.161 84.0575 143.279 84.021C143.397 83.9846 143.504 83.9164 143.586 83.8239C144.012 83.3022 144.281 82.6707 144.363 82.0025C144.446 81.3343 144.337 80.6564 144.051 80.0469V80.0509C143.954 79.8869 143.799 79.7644 143.617 79.7069ZM124.34 86.4299C125.547 86.47 126.708 86.9001 127.65 87.6559C126.635 87.802 125.695 88.272 124.969 88.9959L102.162 111.701L97.6862 107.225C109.514 95.4529 116.746 89.3039 121.242 87.2889C122.168 86.7048 123.246 86.4067 124.34 86.4299ZM128.305 89.3899C129.071 89.39 129.806 89.6935 130.348 90.2339C130.637 90.5047 130.865 90.834 131.016 91.1997C131.168 91.5654 131.24 91.9593 131.227 92.3549C131.214 92.7492 131.12 93.1364 130.95 93.4926C130.781 93.8488 130.54 94.1661 130.242 94.4249L105.992 115.531L103.375 112.914L126.262 90.2339C126.805 89.6938 127.54 89.3897 128.305 89.3899ZM131.299 96.0879C129.609 102.79 120.652 111.871 111.312 120.695L107.535 116.922L131.299 96.0879ZM96.3672 108.547L96.6412 108.817L100.154 112.33L90.5242 114.39L96.3672 108.547ZM102.16 114.387L102.164 114.391L103.332 115.586C103.337 115.614 103.343 115.642 103.35 115.67L103.428 115.682L103.676 115.936L104.496 116.776L99.1112 117.436L102.161 114.386L102.16 114.387ZM106.027 118.463L109.605 122.039C101.694 128.618 93.0115 134.211 83.7502 138.695C83.4495 138.838 83.2078 139.081 83.0661 139.382C82.9244 139.684 82.8916 140.025 82.9732 140.348L84.0082 144.848C84.0464 144.901 84.0669 144.964 84.0669 145.029C84.0669 145.095 84.0464 145.158 84.0082 145.211C83.9513 145.262 83.8776 145.29 83.8012 145.29C83.7248 145.29 83.6511 145.262 83.5942 145.211L77.4922 139.059L96.3002 119.975L106.027 118.463ZM76.0942 140.403L76.9632 141.217L81.4552 145.709L71.4392 145.061L76.0942 140.403Z" fill="#F37036"/>
<defs>
<filter id="filter0_d_310_44" x="0.1" y="0.1" width="222.8" height="222.8" filterUnits="userSpaceOnUse" color-interpolation-filters="sRGB">
<feFlood flood-opacity="0" result="BackgroundImageFix"/>
<feColorMatrix in="SourceAlpha" type="matrix" values="0 0 0 0 0 0 0 0 0 0 0 0 0 0 0 0 0 0 127 0" result="hardAlpha"/>
<feOffset dx="3" dy="1"/>
<feGaussianBlur stdDeviation="5.45"/>
<feComposite in2="hardAlpha" operator="out"/>
<feColorMatrix type="matrix" values="0 0 0 0 0 0 0 0 0 0 0 0 0 0 0 0 0 0 0.25 0"/>
<feBlend mode="normal" in2="BackgroundImageFix" result="effect1_dropShadow_310_44"/>
<feBlend mode="normal" in="SourceGraphic" in2="effect1_dropShadow_310_44" result="shape"/>
</filter>
</defs>
</svg>
