<svg width="223" height="223" viewBox="0 0 223 223" fill="none" xmlns="http://www.w3.org/2000/svg">
<g filter="url(#filter0_d_287_126)">
<circle cx="108.5" cy="110.5" r="100.5" fill="black" fill-opacity="0.42" shape-rendering="crispEdges"/>
</g>
<path d="M109 122.4C115.296 122.4 120.4 117.296 120.4 111C120.4 104.704 115.296 99.6 109 99.6C102.704 99.6 97.5996 104.704 97.5996 111C97.5996 117.296 102.704 122.4 109 122.4Z" fill="#61DAFB"/>
<path d="M152.3 92.2C150.1 91.4 147.8 90.6 145.4 89.9C146 87.5 146.5 85.1 146.9 82.8C149 69.6 146.7 60.3 140.3 56.7C138.4 55.6 136.3 55.1 133.9 55.1C126.9 55.1 118 60.3 109 69C100 60.3 91.1004 55.1 84.1004 55.1C81.7004 55.1 79.6004 55.6 77.7004 56.7C71.3004 60.4 69.0004 69.7 71.1004 82.8C71.5004 85.1 72.0004 87.5 72.6004 89.9C70.2004 90.6 67.9004 91.3 65.7004 92.2C53.2004 97 46.4004 103.6 46.4004 111C46.4004 118.4 53.3004 125 65.7004 129.8C67.9004 130.6 70.2004 131.4 72.6004 132.1C72.0004 134.5 71.5004 136.9 71.1004 139.2C69.0004 152.4 71.3004 161.7 77.7004 165.3C79.6004 166.4 81.7004 166.9 84.1004 166.9C91.2004 166.9 100.1 161.7 109 153C118 161.7 126.9 166.9 133.9 166.9C136.3 166.9 138.4 166.4 140.3 165.3C146.7 161.6 149 152.3 146.9 139.2C146.5 136.9 146 134.5 145.4 132.1C147.8 131.4 150.1 130.7 152.3 129.8C164.8 125 171.6 118.4 171.6 111C171.6 103.6 164.8 97 152.3 92.2ZM137.5 61.7C141.6 64.1 143 71.5 141.3 82C141 84.1 140.5 86.3 139.9 88.6C134.7 87.4 129.2 86.6 123.4 86.1C120 81.3 116.5 77 113 73.1C120.4 65.8 127.9 60.8 134 60.8C135.3 60.8 136.5 61.1 137.5 61.7ZM126.3 121C124.5 124.2 122.4 127.4 120.2 130.6C116.5 130.9 112.8 131 109 131C105.1 131 101.4 130.9 97.8004 130.6C95.6004 127.4 93.6004 124.2 91.8004 121C89.9004 117.7 88.1004 114.3 86.5004 111C88.1004 107.7 89.9004 104.3 91.8004 101C93.6004 97.8 95.7004 94.6 97.9004 91.4C101.6 91.1 105.3 91 109.1 91C113 91 116.7 91.1 120.3 91.4C122.5 94.6 124.5 97.8 126.3 101C128.2 104.3 130 107.7 131.6 111C129.9 114.3 128.2 117.6 126.3 121ZM134.6 117.7C136.1 121.2 137.3 124.6 138.4 128C135 128.8 131.4 129.4 127.6 129.9C128.8 128 130.1 126 131.2 123.9C132.4 121.8 133.5 119.7 134.6 117.7ZM109 144.8C106.6 142.2 104.3 139.4 102.1 136.5C104.4 136.6 106.7 136.7 109 136.7C111.3 136.7 113.6 136.6 115.9 136.5C113.7 139.4 111.4 142.2 109 144.8ZM90.4004 129.8C86.6004 129.3 83.0004 128.7 79.6004 127.9C80.7004 124.6 81.9004 121.1 83.4004 117.6C84.5004 119.6 85.6004 121.7 86.8004 123.7C88.0004 125.9 89.2004 127.8 90.4004 129.8ZM83.4004 104.3C81.9004 100.8 80.7004 97.4 79.6004 94C83.0004 93.2 86.6004 92.6 90.4004 92.1C89.2004 94 87.9004 96 86.8004 98.1C85.6004 100.2 84.5004 102.3 83.4004 104.3ZM109 77.2C111.4 79.8 113.7 82.6 115.9 85.5C113.6 85.4 111.3 85.3 109 85.3C106.7 85.3 104.4 85.4 102.1 85.5C104.3 82.6 106.6 79.8 109 77.2ZM131.2 98.2L127.6 92.2C131.4 92.7 135 93.3 138.4 94.1C137.3 97.4 136.1 100.9 134.6 104.4C133.5 102.3 132.4 100.2 131.2 98.2ZM76.7004 82C75.0004 71.5 76.4004 64.1 80.5004 61.7C81.5004 61.1 82.7004 60.8 84.0004 60.8C90.0004 60.8 97.5004 65.7 105 73.1C101.5 76.9 98.0004 81.3 94.6004 86.1C88.8004 86.6 83.3004 87.5 78.1004 88.6C77.5004 86.3 77.1004 84.1 76.7004 82ZM52.0004 111C52.0004 106.3 57.7004 101.3 67.7004 97.6C69.7004 96.8 71.9004 96.1 74.1004 95.5C75.7004 100.5 77.7004 105.8 80.1004 111.1C77.7004 116.4 75.6004 121.6 74.1004 126.6C60.3004 122.6 52.0004 116.6 52.0004 111ZM80.5004 160.3C76.4004 157.9 75.0004 150.5 76.7004 140C77.0004 137.9 77.5004 135.7 78.1004 133.4C83.3004 134.6 88.8004 135.4 94.6004 135.9C98.0004 140.7 101.5 145 105 148.9C97.6004 156.2 90.1004 161.2 84.0004 161.2C82.7004 161.2 81.5004 160.9 80.5004 160.3ZM141.3 140C143 150.5 141.6 157.9 137.5 160.3C136.5 160.9 135.3 161.2 134 161.2C128 161.2 120.5 156.3 113 148.9C116.5 145.1 120 140.7 123.4 135.9C129.2 135.4 134.7 134.5 139.9 133.4C140.5 135.7 140.9 137.9 141.3 140ZM150.3 124.4C148.3 125.2 146.1 125.9 143.9 126.5C142.3 121.5 140.3 116.2 137.9 110.9C140.3 105.6 142.4 100.4 143.9 95.4C157.7 99.4 166 105.4 166 111C166 115.7 160.2 120.7 150.3 124.4Z" fill="#61DAFB"/>
<defs>
<filter id="filter0_d_287_126" x="0.1" y="0.1" width="222.8" height="222.8" filterUnits="userSpaceOnUse" color-interpolation-filters="sRGB">
<feFlood flood-opacity="0" result="BackgroundImageFix"/>
<feColorMatrix in="SourceAlpha" type="matrix" values="0 0 0 0 0 0 0 0 0 0 0 0 0 0 0 0 0 0 127 0" result="hardAlpha"/>
<feOffset dx="3" dy="1"/>
<feGaussianBlur stdDeviation="5.45"/>
<feComposite in2="hardAlpha" operator="out"/>
<feColorMatrix type="matrix" values="0 0 0 0 0 0 0 0 0 0 0 0 0 0 0 0 0 0 0.25 0"/>
<feBlend mode="normal" in2="BackgroundImageFix" result="effect1_dropShadow_287_126"/>
<feBlend mode="normal" in="SourceGraphic" in2="effect1_dropShadow_287_126" result="shape"/>
</filter>
</defs>
</svg>
