<svg width="223" height="223" viewBox="0 0 223 223" fill="none" xmlns="http://www.w3.org/2000/svg">
<g filter="url(#filter0_d_287_132)">
<circle cx="108.5" cy="110.5" r="100.5" fill="black" fill-opacity="0.42" shape-rendering="crispEdges"/>
</g>
<path d="M136.689 130.11C127.689 148.51 111.929 160.89 91.0792 164.96C87.8823 165.743 84.6005 166.126 81.3092 166.1C69.3092 166.1 58.3092 161.1 52.9692 152.91C45.7992 142 43.3592 118.87 66.9992 101.76C67.4792 104.37 68.4592 107.95 69.1092 110.07C64.4685 113.518 60.67 117.973 57.9992 123.1C53.5992 131.74 54.0892 140.37 59.2992 148.35C62.8992 153.73 68.5992 157 75.9292 158C85.0846 159.159 94.3725 157.41 102.479 153C115.189 146.32 123.659 138.34 129.199 127.43C127.633 125.811 126.705 123.68 126.589 121.43C126.505 119.016 127.383 116.667 129.029 114.899C130.675 113.131 132.955 112.089 135.369 112H135.709C138.057 111.988 140.32 112.88 142.029 114.489C143.738 116.099 144.763 118.305 144.891 120.649C145.02 122.994 144.242 125.298 142.719 127.085C141.196 128.872 139.044 130.005 136.709 130.25L136.689 130.11ZM165.359 109.91C177.569 123.75 177.899 140.04 173.179 149.49C168.779 158.12 157.179 166.76 141.579 166.76C134.297 166.611 127.133 164.889 120.579 161.71C122.869 160.08 126.119 157.47 127.909 155.84C132.963 158.029 138.402 159.192 143.909 159.26C154.009 159.26 161.659 154.54 166.219 145.91C169.149 140.21 169.319 133.53 166.549 126.69C163.15 118.084 157.102 110.782 149.279 105.84C139.016 98.9214 126.917 95.2332 114.539 95.25H111.609C110.926 96.8283 109.814 98.1837 108.401 99.1628C106.987 100.142 105.327 100.706 103.609 100.79H103.299C100.923 100.761 98.6525 99.8065 96.9689 98.1299C95.2854 96.4533 94.3217 94.1864 94.2826 91.8107C94.2436 89.435 95.1322 87.1377 96.7598 85.4067C98.3873 83.6756 100.626 82.6473 102.999 82.54H103.329C104.983 82.5412 106.605 82.9983 108.016 83.8609C109.428 84.7236 110.574 85.9585 111.329 87.43H113.939C134.739 87.43 152.999 95.41 165.359 109.91ZM82.6092 132.91C82.438 131.249 82.8403 129.58 83.7492 128.18C74.6292 112.38 69.7492 92.35 77.2392 71.5C82.6092 55.83 96.1292 45.24 110.789 45.24C126.429 45.24 142.719 58.93 144.669 85.31C142.229 84.5 138.669 83.31 136.529 82.87C135.999 74.24 128.709 52.74 111.439 53.06C105.249 53.23 96.1292 56.16 91.4392 62.18C85.6378 69.3662 82.263 78.206 81.7992 87.43C80.6999 100.078 83.6673 112.746 90.2692 123.59C90.6337 123.457 91.0222 123.402 91.4092 123.43H91.7292C94.148 123.386 96.4851 124.305 98.2263 125.985C99.9676 127.664 100.97 129.966 101.014 132.385C101.058 134.804 100.139 137.141 98.4597 138.882C96.7803 140.623 94.478 141.626 92.0592 141.67H91.7292C89.3695 141.662 87.1041 140.743 85.4051 139.105C83.706 137.468 82.7045 135.238 82.6092 132.88V132.91Z" fill="#764ABC"/>
<defs>
<filter id="filter0_d_287_132" x="0.1" y="0.1" width="222.8" height="222.8" filterUnits="userSpaceOnUse" color-interpolation-filters="sRGB">
<feFlood flood-opacity="0" result="BackgroundImageFix"/>
<feColorMatrix in="SourceAlpha" type="matrix" values="0 0 0 0 0 0 0 0 0 0 0 0 0 0 0 0 0 0 127 0" result="hardAlpha"/>
<feOffset dx="3" dy="1"/>
<feGaussianBlur stdDeviation="5.45"/>
<feComposite in2="hardAlpha" operator="out"/>
<feColorMatrix type="matrix" values="0 0 0 0 0 0 0 0 0 0 0 0 0 0 0 0 0 0 0.25 0"/>
<feBlend mode="normal" in2="BackgroundImageFix" result="effect1_dropShadow_287_132"/>
<feBlend mode="normal" in="SourceGraphic" in2="effect1_dropShadow_287_132" result="shape"/>
</filter>
</defs>
</svg>
