<svg width="223" height="223" viewBox="0 0 223 223" fill="none" xmlns="http://www.w3.org/2000/svg">
<g filter="url(#filter0_d_325_60)">
<circle cx="108.5" cy="110.5" r="100.5" fill="black" fill-opacity="0.42" shape-rendering="crispEdges"/>
</g>
<path d="M50.8322 101.359C50.8322 102.582 51.2398 103.746 52.0552 104.853C52.8705 105.901 53.9188 106.775 55.2 107.474C56.4812 108.172 57.9372 108.784 59.5678 109.308C61.1985 109.832 62.9165 110.385 64.7218 110.968C66.5272 111.55 68.3034 112.191 70.0506 112.89C71.7977 113.589 73.3119 114.462 74.5931 115.51C77.3885 117.782 78.7862 120.868 78.7862 124.77C78.7862 126.634 78.3494 128.41 77.4759 130.099C76.6023 131.73 75.3793 133.098 73.8069 134.205C70.6038 136.534 66.3234 137.699 60.9655 137.699C55.8989 137.699 51.4437 136.418 47.6 133.855C45.2123 132.341 44.0184 131.06 44.0184 130.011C44.0184 129.08 44.4843 128.323 45.4161 127.74C45.649 127.507 45.9402 127.391 46.2897 127.391C46.6391 127.391 47.0176 127.536 47.4253 127.828C47.833 128.119 48.2989 128.468 48.823 128.876C49.4054 129.284 50.1042 129.749 50.9195 130.274C51.7931 130.739 52.6958 131.176 53.6276 131.584C55.9571 132.516 58.2284 132.952 60.4414 132.894C62.6544 132.836 64.4307 132.661 65.7701 132.37C67.1096 132.079 68.3034 131.584 69.3517 130.885C71.5648 129.371 72.7004 127.449 72.7586 125.12C72.7586 122.208 71.3318 119.966 68.4782 118.393C67.1969 117.694 65.741 117.083 64.1103 116.559C62.5379 115.976 60.849 115.423 59.0437 114.899C57.2966 114.375 55.5494 113.734 53.8023 112.977C52.0552 112.22 50.5119 111.317 49.1724 110.269C46.3188 107.998 44.892 105.086 44.892 101.533C44.892 99.6697 45.3287 97.9226 46.2023 96.292C47.1341 94.6613 48.3862 93.3218 49.9586 92.2736C52.987 90.1188 56.7724 89.0123 61.3149 88.954C67.8958 88.954 73.1954 91.0797 77.2138 95.331C77.4467 95.6805 77.5632 96.0881 77.5632 96.554C77.5632 96.9617 77.5341 97.3111 77.4759 97.6023C77.4759 97.8935 77.3303 98.1847 77.0391 98.4759C76.6314 99 76.0782 99.2621 75.3793 99.2621C74.7387 99.2621 74.0398 98.8253 73.2828 97.9517C71.3609 96.554 69.8176 95.6513 68.6529 95.2437C66.3234 94.3119 64.0521 93.846 61.8391 93.846C58.9854 93.846 56.5395 94.4284 54.5011 95.5931C52.0552 96.9908 50.8322 98.9126 50.8322 101.359ZM92.0623 137C91.3635 137 90.7811 136.767 90.3152 136.301C89.4999 135.602 89.0922 134.874 89.0922 134.117V92.2736C89.0922 91.167 89.6746 90.2935 90.8393 89.6529C91.1888 89.5364 91.5382 89.4199 91.8876 89.3034H116.784C117.658 89.3034 118.298 89.5655 118.706 90.0897C119.114 90.6138 119.317 91.1962 119.317 91.8368C119.317 92.4192 119.085 92.9724 118.619 93.4966C118.153 94.0207 117.541 94.2828 116.784 94.2828H94.8577V110.094H115.736C116.609 110.094 117.25 110.356 117.658 110.88C118.065 111.346 118.269 111.9 118.269 112.54C118.269 113.123 118.036 113.647 117.57 114.113C117.104 114.579 116.493 114.811 115.736 114.811H94.8577V132.108H117.745C118.56 132.108 119.172 132.37 119.58 132.894C119.987 133.418 120.191 134.001 120.191 134.641C120.191 135.282 119.958 135.835 119.492 136.301C119.085 136.767 118.502 137 117.745 137H92.0623ZM135.769 106.338C135.245 108.726 134.983 111.084 134.983 113.414C134.983 115.685 135.245 118.044 135.769 120.49C136.352 122.936 137.313 125.09 138.652 126.954C139.992 128.759 141.651 130.215 143.631 131.322C145.611 132.428 148.028 132.982 150.882 132.982C153.736 132.982 156.182 132.428 158.22 131.322C160.258 130.215 161.918 128.759 163.199 126.954C164.48 125.09 165.412 122.936 165.995 120.49C166.635 118.044 166.956 115.685 166.956 113.414C166.956 111.084 166.635 108.726 165.995 106.338C165.412 103.892 164.48 101.766 163.199 99.9609C161.918 98.0973 160.258 96.6123 158.22 95.5057C156.182 94.3992 153.736 93.846 150.882 93.846C148.028 93.846 145.611 94.3992 143.631 95.5057C141.651 96.6123 139.992 98.0973 138.652 99.9609C137.313 101.766 136.352 103.892 135.769 106.338ZM128.431 113.239C128.431 109.861 128.926 106.658 129.916 103.63C130.906 100.602 132.392 98.01 134.372 95.8552C138.332 91.3126 143.806 89.0123 150.795 88.954C157.9 88.954 163.461 91.2544 167.48 95.8552C169.401 98.01 170.828 100.602 171.76 103.63C172.75 106.658 173.245 109.861 173.245 113.239C173.245 116.675 172.75 119.966 171.76 123.11C170.828 126.197 169.401 128.789 167.48 130.885C163.461 135.428 157.9 137.699 150.795 137.699C143.748 137.699 138.274 135.428 134.372 130.885C132.392 128.672 130.906 126.051 129.916 123.023C128.926 119.936 128.431 116.675 128.431 113.239Z" fill="white"/>
<defs>
<filter id="filter0_d_325_60" x="0.1" y="0.1" width="222.8" height="222.8" filterUnits="userSpaceOnUse" color-interpolation-filters="sRGB">
<feFlood flood-opacity="0" result="BackgroundImageFix"/>
<feColorMatrix in="SourceAlpha" type="matrix" values="0 0 0 0 0 0 0 0 0 0 0 0 0 0 0 0 0 0 127 0" result="hardAlpha"/>
<feOffset dx="3" dy="1"/>
<feGaussianBlur stdDeviation="5.45"/>
<feComposite in2="hardAlpha" operator="out"/>
<feColorMatrix type="matrix" values="0 0 0 0 0 0 0 0 0 0 0 0 0 0 0 0 0 0 0.25 0"/>
<feBlend mode="normal" in2="BackgroundImageFix" result="effect1_dropShadow_325_60"/>
<feBlend mode="normal" in="SourceGraphic" in2="effect1_dropShadow_325_60" result="shape"/>
</filter>
</defs>
</svg>
