<svg width="223" height="223" viewBox="0 0 223 223" fill="none" xmlns="http://www.w3.org/2000/svg">
<g filter="url(#filter0_d_287_122)">
<circle cx="108.5" cy="110.5" r="100.5" fill="black" fill-opacity="0.42" shape-rendering="crispEdges"/>
</g>
<path d="M55.7031 110.423V163.646H162.148V57.2007H55.7031V110.423ZM141.481 106.166C144.03 106.757 146.348 108.091 148.14 109.998C149.127 111.025 149.985 112.169 150.695 113.404C150.695 113.54 146.096 116.648 143.295 118.385C143.193 118.454 142.784 118.011 142.333 117.338C141.821 116.456 141.094 115.717 140.22 115.191C139.346 114.666 138.353 114.37 137.334 114.332C134.106 114.111 132.029 115.805 132.046 118.59C132.019 119.283 132.178 119.971 132.506 120.583C133.212 122.056 134.532 122.933 138.671 124.721C146.292 128 149.554 130.163 151.581 133.237C153.846 136.643 154.348 142.144 152.815 146.215C151.112 150.643 146.94 153.649 141.038 154.645C138.343 154.954 135.62 154.925 132.931 154.56C128.829 153.894 125.044 151.941 122.125 148.982C121.146 147.901 119.238 145.082 119.357 144.878C119.668 144.647 119.996 144.439 120.337 144.256L124.254 142.008L127.311 140.237L127.95 141.182C129.028 142.724 130.399 144.037 131.986 145.048C135.392 146.836 140.042 146.589 142.341 144.52C143.113 143.762 143.595 142.757 143.702 141.68C143.809 140.603 143.536 139.523 142.929 138.627C142.077 137.443 140.374 136.447 135.614 134.369C130.121 132.002 127.754 130.537 125.591 128.204C124.241 126.664 123.244 124.848 122.67 122.882C122.242 120.636 122.179 118.335 122.483 116.069C123.615 110.764 127.592 107.06 133.4 105.961C136.089 105.628 138.814 105.703 141.481 106.183V106.166ZM116.496 110.628V114.988H102.675V154.355H92.8738V114.979H79.0189V110.721C78.9817 109.256 79.0215 107.789 79.1381 106.327C79.1892 106.259 87.6538 106.225 97.8725 106.242H116.445L116.496 110.628Z" fill="#007ACC"/>
<defs>
<filter id="filter0_d_287_122" x="0.1" y="0.1" width="222.8" height="222.8" filterUnits="userSpaceOnUse" color-interpolation-filters="sRGB">
<feFlood flood-opacity="0" result="BackgroundImageFix"/>
<feColorMatrix in="SourceAlpha" type="matrix" values="0 0 0 0 0 0 0 0 0 0 0 0 0 0 0 0 0 0 127 0" result="hardAlpha"/>
<feOffset dx="3" dy="1"/>
<feGaussianBlur stdDeviation="5.45"/>
<feComposite in2="hardAlpha" operator="out"/>
<feColorMatrix type="matrix" values="0 0 0 0 0 0 0 0 0 0 0 0 0 0 0 0 0 0 0.25 0"/>
<feBlend mode="normal" in2="BackgroundImageFix" result="effect1_dropShadow_287_122"/>
<feBlend mode="normal" in="SourceGraphic" in2="effect1_dropShadow_287_122" result="shape"/>
</filter>
</defs>
</svg>
