<svg width="223" height="223" viewBox="0 0 223 223" fill="none" xmlns="http://www.w3.org/2000/svg">
<g filter="url(#filter0_d_287_123)">
<circle cx="108.5" cy="110.5" r="100.5" fill="black" fill-opacity="0.42" shape-rendering="crispEdges"/>
</g>
<path d="M171.671 145.44C167.111 146.6 164.291 145.49 161.761 141.69C156.081 133.18 149.811 125.06 143.761 116.79C142.981 115.72 142.171 114.67 141.161 113.34C134.001 123 126.851 132.2 120.141 141.77C117.741 145.19 115.221 146.68 110.741 145.47L137.661 109.34L112.601 76.71C116.911 75.87 119.891 76.3 122.531 80.16C128.361 88.68 134.791 96.79 141.201 105.37C147.651 96.82 154.001 88.7 160.001 80.26C162.411 76.84 165.001 75.54 169.331 76.8C166.051 81.15 162.841 85.43 159.611 89.68C155.251 95.41 150.971 101.21 146.451 106.82C144.841 108.82 145.101 110.12 146.541 112.01C154.901 123 163.161 134.1 171.671 145.44ZM46.3308 108.74C47.0508 105.13 47.5308 101.45 48.5308 97.91C54.5308 76.48 79.1308 67.57 96.0308 80.85C105.931 88.64 108.391 99.62 107.901 112H52.1008C51.2608 134.21 67.2508 147.62 87.6308 140.78C94.7808 138.38 98.9908 132.78 101.101 125.78C102.171 122.27 103.941 121.72 107.241 122.72C105.551 131.48 101.721 138.8 93.7208 143.38C81.7208 150.24 64.5908 148.02 55.5808 138.49C50.2608 132.89 48.0008 125.92 47.0008 118.39C46.8508 117.19 46.5408 116.01 46.3008 114.82C46.3208 112.793 46.3308 110.767 46.3308 108.74ZM52.2008 107.25H102.631C102.301 91.19 92.3008 79.78 78.6308 79.68C63.6308 79.56 52.8508 90.7 52.2008 107.25Z" fill="white"/>
<defs>
<filter id="filter0_d_287_123" x="0.1" y="0.1" width="222.8" height="222.8" filterUnits="userSpaceOnUse" color-interpolation-filters="sRGB">
<feFlood flood-opacity="0" result="BackgroundImageFix"/>
<feColorMatrix in="SourceAlpha" type="matrix" values="0 0 0 0 0 0 0 0 0 0 0 0 0 0 0 0 0 0 127 0" result="hardAlpha"/>
<feOffset dx="3" dy="1"/>
<feGaussianBlur stdDeviation="5.45"/>
<feComposite in2="hardAlpha" operator="out"/>
<feColorMatrix type="matrix" values="0 0 0 0 0 0 0 0 0 0 0 0 0 0 0 0 0 0 0.25 0"/>
<feBlend mode="normal" in2="BackgroundImageFix" result="effect1_dropShadow_287_123"/>
<feBlend mode="normal" in="SourceGraphic" in2="effect1_dropShadow_287_123" result="shape"/>
</filter>
</defs>
</svg>
