<svg width="223" height="223" viewBox="0 0 223 223" fill="none" xmlns="http://www.w3.org/2000/svg">
<g filter="url(#filter0_d_287_81)">
<circle cx="108.501" cy="110.501" r="100.501" fill="black" fill-opacity="0.42" shape-rendering="crispEdges"/>
</g>
<path d="M108.501 171.057C106.833 171.057 105.274 170.608 103.819 169.832L89.0267 161.05C86.8131 159.819 87.923 159.37 88.5901 159.146C91.5982 158.145 92.1561 157.927 95.2673 156.156C95.6069 155.932 96.0497 156.035 96.3893 156.259L107.73 163.052C108.179 163.27 108.737 163.27 109.071 163.052L153.458 137.355C153.907 137.137 154.125 136.688 154.125 136.13V84.835C154.125 84.2831 153.907 83.8343 153.458 83.616L109.071 58.029C108.628 57.8046 108.07 57.8046 107.73 58.029L63.3305 83.6099C62.8878 83.8282 62.6634 84.3923 62.6634 84.8289V136.118C62.6634 136.561 62.8878 137.125 63.3305 137.343L75.46 144.36C82.022 147.684 86.146 143.784 86.146 139.903V89.2865C86.146 88.6194 86.6979 87.9462 87.4802 87.9462H93.1568C93.8118 87.9462 94.491 88.5041 94.491 89.2865V139.909C94.491 148.696 89.712 153.821 81.367 153.821C78.8077 153.821 76.8063 153.821 71.1298 151.031L59.4552 144.366C58.0328 143.539 56.8523 142.354 56.0317 140.927C55.2112 139.501 54.7793 137.885 54.7793 136.24V84.9442C54.7793 81.6086 56.5563 78.4913 59.4552 76.8235L103.825 51.1273C105.265 50.357 106.873 49.954 108.507 49.954C110.14 49.954 111.748 50.357 113.189 51.1273L157.564 76.8235C160.469 78.4852 162.24 81.6086 162.24 84.9442V136.24C162.24 139.569 160.463 142.686 157.564 144.366L113.189 170.056C111.727 170.723 110.059 171.057 108.501 171.057ZM122.183 135.785C102.715 135.785 98.7121 126.882 98.7121 119.325C98.7121 118.658 99.27 117.985 100.046 117.985H105.832C106.499 117.985 107.051 118.427 107.051 119.101C107.943 124.989 110.496 127.888 122.298 127.888C131.637 127.888 135.652 125.766 135.652 120.762C135.652 117.869 134.53 115.759 119.963 114.316C107.839 113.103 100.277 110.416 100.277 100.743C100.277 91.7366 107.839 86.3936 120.527 86.3936C134.761 86.3936 141.772 91.3 142.657 101.968C142.646 102.328 142.528 102.676 142.317 102.968C142.093 103.187 141.765 103.411 141.432 103.411H135.652C135.367 103.405 135.091 103.304 134.869 103.124C134.647 102.944 134.492 102.695 134.427 102.417C133.087 96.2791 129.642 94.2899 120.527 94.2899C110.284 94.2899 109.058 97.8499 109.058 100.518C109.058 103.739 110.496 104.739 124.305 106.522C137.987 108.299 144.44 110.859 144.44 120.435C144.319 130.229 136.319 135.785 122.183 135.785Z" fill="#14E66B"/>
<defs>
<filter id="filter0_d_287_81" x="0.1" y="0.1" width="222.802" height="222.802" filterUnits="userSpaceOnUse" color-interpolation-filters="sRGB">
<feFlood flood-opacity="0" result="BackgroundImageFix"/>
<feColorMatrix in="SourceAlpha" type="matrix" values="0 0 0 0 0 0 0 0 0 0 0 0 0 0 0 0 0 0 127 0" result="hardAlpha"/>
<feOffset dx="3" dy="1"/>
<feGaussianBlur stdDeviation="5.45"/>
<feComposite in2="hardAlpha" operator="out"/>
<feColorMatrix type="matrix" values="0 0 0 0 0 0 0 0 0 0 0 0 0 0 0 0 0 0 0.25 0"/>
<feBlend mode="normal" in2="BackgroundImageFix" result="effect1_dropShadow_287_81"/>
<feBlend mode="normal" in="SourceGraphic" in2="effect1_dropShadow_287_81" result="shape"/>
</filter>
</defs>
</svg>
