<svg width="223" height="223" viewBox="0 0 223 223" fill="none" xmlns="http://www.w3.org/2000/svg">
<g filter="url(#filter0_d_287_130)">
<circle cx="108.5" cy="110.5" r="100.5" fill="black" fill-opacity="0.42" shape-rendering="crispEdges"/>
</g>
<path d="M138.281 138.757C138.986 132.887 138.775 132.026 143.147 132.977L144.256 133.074C147.618 133.227 152.016 132.533 154.6 131.333C160.162 128.752 163.46 124.444 157.977 125.575C145.467 128.156 144.607 123.92 144.607 123.92C157.817 104.321 163.338 79.4402 158.571 73.3497C145.571 56.7385 123.068 64.5936 122.691 64.7966L122.571 64.8191C120.099 64.3061 117.333 63.9997 114.225 63.9494C108.564 63.8559 104.269 65.4336 101.01 67.9043C101.01 67.9043 60.8653 51.365 62.7331 88.704C63.1302 96.6471 74.1181 148.808 87.2245 133.053C92.015 127.292 96.6438 122.421 96.6438 122.421C98.942 123.947 101.695 124.727 104.581 124.447L104.804 124.256C104.734 124.971 104.765 125.671 104.893 126.5C101.518 130.272 102.51 130.934 95.7597 132.323C88.9298 133.73 92.9422 136.236 95.5611 136.891C98.7371 137.685 106.084 138.81 111.048 131.861L110.851 132.654C112.175 133.714 112.086 140.27 112.273 144.953C112.461 149.638 112.774 154.009 113.729 156.586C114.684 159.163 115.811 165.801 124.682 163.9C132.096 162.315 137.764 160.028 138.281 138.757Z" fill="black"/>
<path d="M121.794 168.535C117.87 168.535 115.315 167.017 113.763 165.552C111.421 163.342 110.492 160.495 109.937 158.794L109.697 158.084C108.579 155.067 108.2 150.723 107.976 145.129C107.942 144.289 107.918 143.424 107.892 142.507C107.873 141.836 107.85 140.994 107.816 140.113C106.402 140.787 104.902 141.262 103.358 141.522C100.591 141.995 97.6176 141.842 94.5171 141.067C92.3294 140.52 90.0564 139.386 88.7608 137.635C84.9847 140.942 81.3828 140.494 79.4207 139.839C75.959 138.684 72.8612 135.44 69.9493 129.923C67.8748 125.992 65.8686 120.871 63.9855 114.7C60.7062 103.955 58.6227 92.6374 58.4376 88.9214C57.8555 77.2911 60.9865 68.9734 67.7419 64.2018C78.3982 56.6747 94.544 61.1013 100.431 63.1111C104.386 60.7275 109.039 59.5677 114.296 59.6512C117.12 59.697 119.809 59.945 122.307 60.3906C124.912 59.5713 130.058 58.3952 135.949 58.4689C146.803 58.5983 155.798 62.8281 161.958 70.7011C166.355 76.3181 164.181 88.1137 162.495 94.6454C160.121 103.833 155.962 113.604 150.854 122.111C152.241 122.12 154.251 121.954 157.108 121.364C162.744 120.201 164.393 123.223 164.84 124.576C166.633 130.004 158.842 134.107 156.411 135.235C153.297 136.681 148.22 137.561 144.062 137.371L143.881 137.359L142.788 137.263L142.681 138.174L142.576 139.064C142.297 149.844 140.757 156.672 137.588 161.183C134.267 165.912 129.65 167.237 125.584 168.109C124.197 168.405 122.936 168.535 121.794 168.535ZM113.537 129.299C116.07 131.326 116.292 135.14 116.49 142.267C116.515 143.156 116.539 143.998 116.57 144.784C116.665 147.165 116.889 152.74 117.762 155.096C117.885 155.429 117.996 155.767 118.113 156.125C119.086 159.105 119.574 160.599 123.781 159.699C127.313 158.942 129.129 158.263 130.55 156.24C132.615 153.298 133.771 147.381 133.983 138.653L138.28 138.757L134.012 138.245L134.138 137.179C134.547 133.666 134.842 131.129 137.189 129.451C139.073 128.105 141.22 128.235 142.929 128.543C141.051 127.124 140.531 125.459 140.393 124.776L140.035 123.011L141.042 121.517C146.843 112.91 151.626 102.331 154.167 92.4936C156.778 82.3853 155.982 77.0171 155.186 76.0019C144.648 62.537 126.375 68.0965 124.467 68.7272L124.144 68.9015L122.527 69.2025L121.698 69.0309C119.415 68.5565 116.877 68.2942 114.158 68.2502C109.885 68.1783 106.438 69.1881 103.611 71.3327L101.65 72.8196L99.3741 71.8825C94.5117 69.8943 80.2301 65.8972 72.694 71.2348C68.5109 74.1978 66.6053 80.0035 67.0294 88.4911C67.1696 91.2933 69.0733 101.901 72.2143 112.189C76.5546 126.407 80.4988 131.13 82.1456 131.679C82.4331 131.776 83.1788 131.196 83.9209 130.305C87.0152 126.596 90.2192 122.98 93.5288 119.461L96.0175 116.842L99.0264 118.841C100.239 119.647 101.577 120.104 102.951 120.191L110.127 114.07L109.087 124.679C109.064 124.917 109.052 125.242 109.145 125.844L109.458 127.854L108.101 129.371L107.945 129.547L111.887 131.366L113.537 129.299Z" fill="black"/>
<path d="M157.977 125.575C145.466 128.156 144.607 123.92 144.607 123.92C157.816 104.32 163.338 79.4385 158.573 73.3497C145.572 56.7394 123.067 64.5945 122.692 64.7984L122.571 64.82C120.099 64.307 117.333 64.0015 114.223 63.9512C108.562 63.8586 104.269 65.4354 101.01 67.9061C101.01 67.9061 60.8642 51.3677 62.7311 88.7058C63.1282 96.6498 74.1161 148.81 87.2225 133.055C92.013 127.295 96.6408 122.423 96.6408 122.423C98.94 123.95 101.692 124.73 104.577 124.449L104.801 124.259C104.731 124.974 104.764 125.674 104.891 126.502C101.515 130.275 102.507 130.937 95.7568 132.326C88.9269 133.733 92.9393 136.239 95.5591 136.894C98.7342 137.688 106.082 138.813 111.045 131.864L110.847 132.657C112.17 133.717 113.099 139.549 112.944 144.837C112.788 150.124 112.683 153.755 113.726 156.59C114.769 159.425 115.807 165.804 124.68 163.903C132.094 162.315 135.936 158.197 136.471 151.33C136.85 146.447 137.708 147.169 137.763 142.803L138.452 140.737C139.247 134.118 138.578 131.984 143.147 132.976L144.256 133.073C147.618 133.226 152.018 132.533 154.601 131.332C160.162 128.753 163.46 124.444 157.977 125.575Z" fill="#336791"/>
<path d="M122.243 165.885C114.847 165.885 112.504 160.028 111.545 157.633C110.142 154.123 109.839 140.501 110.152 129.33C110.156 129.141 110.198 128.956 110.275 128.783C110.352 128.611 110.462 128.456 110.598 128.327C110.735 128.197 110.897 128.096 111.073 128.029C111.249 127.962 111.437 127.931 111.625 127.937C111.813 127.942 111.999 127.984 112.17 128.061C112.342 128.138 112.497 128.248 112.627 128.385C112.756 128.521 112.857 128.682 112.924 128.858C112.991 129.034 113.023 129.221 113.018 129.41C112.657 142.294 113.169 153.97 114.207 156.568C115.828 160.619 118.286 164.163 125.236 162.674C131.833 161.259 134.303 158.758 135.404 152.378C136.249 147.483 137.919 133.555 138.124 130.807C138.138 130.619 138.189 130.436 138.274 130.267C138.358 130.099 138.475 129.949 138.618 129.827C138.761 129.704 138.926 129.61 139.105 129.551C139.284 129.493 139.473 129.47 139.661 129.484C140.04 129.513 140.392 129.691 140.64 129.979C140.888 130.267 141.011 130.641 140.983 131.02C140.769 133.882 139.106 147.783 138.23 152.866C136.93 160.401 133.571 163.819 125.837 165.477C124.522 165.759 123.328 165.884 122.243 165.885ZM82.1401 137.278C81.4937 137.276 80.8518 137.17 80.2391 136.964C75.4351 135.361 70.8594 127.537 66.6385 113.708C63.4257 103.181 61.3898 92.1927 61.211 88.6214C60.6819 78.0342 63.4077 70.5439 69.315 66.3599C81.0009 58.0799 100.66 65.9646 101.491 66.3042C101.843 66.448 102.123 66.7258 102.271 67.0764C102.418 67.427 102.42 67.8218 102.276 68.1738C102.132 68.5259 101.854 68.8064 101.504 68.9537C101.153 69.1009 100.758 69.1029 100.406 68.9591C100.217 68.8818 81.3657 61.3296 70.9663 68.703C65.9153 72.2842 63.5964 78.938 64.0735 88.4785C64.2235 91.4874 66.1255 102.211 69.3796 112.87C73.1477 125.217 77.4359 133.007 81.1456 134.244C81.7278 134.438 83.4995 135.028 86.0322 131.983C88.9857 128.436 92.05 124.982 95.2205 121.627C95.4858 121.363 95.8441 121.212 96.2188 121.209C96.5935 121.205 96.9547 121.348 97.2253 121.607C97.4958 121.867 97.6541 122.221 97.6663 122.596C97.6785 122.97 97.5436 123.335 97.2905 123.611C97.2474 123.656 92.9358 128.163 88.2369 133.816C86.0115 136.493 83.8786 137.278 82.1401 137.278ZM144.518 125.199C144.258 125.198 144.003 125.127 143.78 124.993C143.558 124.859 143.376 124.667 143.254 124.438C143.132 124.208 143.074 123.95 143.088 123.69C143.101 123.431 143.185 123.18 143.33 122.964C156.684 103.149 161.371 79.2067 157.356 74.0766C152.304 67.6204 145.169 64.2486 136.15 64.0536C129.472 63.9099 124.164 65.6151 123.296 65.9125L123.077 66.0014C122.205 66.2755 121.536 65.7975 121.283 65.2387C121.139 64.9185 121.118 64.5567 121.222 64.2216C121.326 63.8864 121.55 63.601 121.85 63.4193C121.892 63.3951 122.023 63.3394 122.236 63.2612C123.71 62.7212 129.099 61.104 135.773 61.1804C145.753 61.2864 153.997 65.1344 159.612 72.3103C162.269 75.7055 162.275 83.5272 159.629 93.7712C156.932 104.216 151.857 115.44 145.706 124.567C145.431 124.978 144.979 125.199 144.518 125.199ZM145.201 134.372C142.92 134.372 140.876 134.05 139.653 133.317C138.395 132.563 138.155 131.539 138.124 130.995C137.78 124.967 141.106 123.917 142.803 123.439C142.566 123.081 142.23 122.66 141.883 122.227C140.893 120.99 139.539 119.298 138.495 116.766C138.331 116.371 137.819 115.451 137.226 114.387C134.011 108.621 127.32 96.622 131.618 90.4776C133.607 87.634 137.568 86.5146 143.405 87.139C141.688 81.9083 133.512 65.5459 114.112 65.2279C108.277 65.1308 103.492 66.925 99.8969 70.5556C91.8469 78.6856 92.138 93.3957 92.1425 93.543C92.1474 93.7312 92.1153 93.9185 92.0478 94.0943C91.9804 94.27 91.879 94.4308 91.7494 94.5674C91.6199 94.7039 91.4647 94.8137 91.2927 94.8902C91.1207 94.9668 90.9354 95.0088 90.7472 95.0138C90.559 95.0187 90.3717 94.9866 90.1959 94.9191C90.0202 94.8517 89.8594 94.7503 89.7228 94.6207C89.5863 94.4912 89.4766 94.336 89.4 94.164C89.3234 93.992 89.2814 93.8067 89.2764 93.6185C89.2585 92.9653 88.9584 77.5284 97.8601 68.5377C102.026 64.3303 107.51 62.2531 114.16 62.3619C126.571 62.5658 134.559 68.8755 139.075 74.1323C143.998 79.8616 146.411 86.1812 146.609 88.2908C146.758 89.8594 145.632 90.173 145.405 90.2197L144.887 90.2314C139.159 89.3141 135.485 89.9511 133.966 92.1217C130.696 96.7945 137.026 108.144 139.728 112.992C140.418 114.228 140.916 115.122 141.144 115.673C142.032 117.826 143.19 119.272 144.12 120.435C144.938 121.457 145.647 122.344 145.9 123.385C146.018 123.591 147.688 126.062 157.599 124.016C160.083 123.504 161.573 123.942 162.028 125.319C162.924 128.028 157.898 131.188 155.116 132.48C152.623 133.639 148.643 134.372 145.201 134.372ZM140.982 130.759C141.296 131.076 142.869 131.623 146.127 131.483C149.023 131.359 152.078 130.729 153.911 129.879C156.255 128.79 157.82 127.572 158.63 126.741L158.181 126.824C151.845 128.132 147.362 127.958 144.859 126.305C144.691 126.194 144.529 126.074 144.374 125.945C144.103 126.052 143.852 126.122 143.673 126.172C142.254 126.57 140.786 126.983 140.982 130.759ZM100.047 138.769C98.4728 138.769 96.8161 138.554 95.1244 138.131C93.3715 137.692 90.4166 136.372 90.4615 134.205C90.5127 131.772 94.0498 131.043 95.3813 130.769C100.192 129.778 100.505 129.381 102.008 127.472C102.447 126.915 102.992 126.223 103.736 125.393C104.84 124.156 106.047 123.53 107.322 123.53C108.211 123.53 108.94 123.831 109.421 124.032C110.956 124.668 112.236 126.206 112.762 128.045C113.238 129.704 113.01 131.302 112.125 132.542C109.216 136.615 105.04 138.769 100.047 138.769ZM93.5584 134.328C93.9905 134.662 94.8566 135.108 95.8207 135.349C97.286 135.716 98.7073 135.902 100.048 135.902C104.132 135.902 107.411 134.211 109.793 130.876C110.29 130.18 110.141 129.297 110.008 128.833C109.729 127.86 109.038 126.975 108.325 126.679C107.939 126.519 107.618 126.397 107.323 126.397C107.165 126.397 106.684 126.397 105.873 127.304C105.314 127.933 104.776 128.58 104.261 129.246C102.389 131.623 101.531 132.43 95.9608 133.577C94.6015 133.856 93.9043 134.14 93.5584 134.328ZM104.581 127.715C104.239 127.715 103.908 127.592 103.649 127.369C103.389 127.145 103.218 126.837 103.166 126.499C103.131 126.261 103.107 126.021 103.094 125.781C99.4432 125.712 95.9204 124.146 93.2457 121.355C89.864 117.827 88.325 112.938 89.024 107.944C89.7832 102.52 89.4993 97.7324 89.3465 95.1602C89.3043 94.4451 89.2737 93.9285 89.2755 93.5709C89.2782 93.1172 89.2872 91.9142 93.3086 89.8756C94.7389 89.1506 97.6068 87.8856 100.74 87.5612C105.93 87.0249 109.351 89.3365 110.375 94.0713C113.14 106.854 110.595 112.508 108.736 116.637C108.39 117.406 108.063 118.132 107.801 118.836L107.57 119.456C106.588 122.089 105.739 124.364 106 126.063C106.029 126.249 106.02 126.439 105.975 126.622C105.931 126.805 105.85 126.977 105.739 127.129C105.627 127.28 105.487 127.409 105.326 127.506C105.165 127.604 104.987 127.669 104.801 127.697L104.581 127.715ZM92.1514 93.968L92.2071 94.9913C92.3653 97.6633 92.66 102.635 91.8621 108.342C91.2862 112.461 92.5441 116.482 95.3148 119.371C97.5043 121.655 100.386 122.916 103.347 122.916H103.408C103.739 121.519 104.29 120.043 104.883 118.454L105.112 117.838C105.408 117.043 105.754 116.274 106.12 115.46C107.909 111.486 110.136 106.538 107.571 94.6778C107.064 92.3283 105.832 90.969 103.808 90.5207C99.6498 89.6025 93.4533 92.7299 92.1514 93.968ZM100.803 93.3597C100.732 93.8665 101.731 95.2195 103.036 95.4001C104.338 95.5825 105.452 94.5241 105.523 94.0174C105.594 93.5107 104.595 92.9519 103.29 92.7704C101.987 92.5889 100.873 92.853 100.803 93.3597ZM103.335 95.8987L102.97 95.8736C102.161 95.7613 101.343 95.2519 100.784 94.5097C100.587 94.2492 100.266 93.7443 100.33 93.2933C100.421 92.632 101.227 92.2358 102.486 92.2358C102.767 92.2358 103.06 92.2565 103.355 92.2978C104.043 92.393 104.682 92.5916 105.154 92.8548C105.971 93.3112 106.031 93.8206 105.995 94.0839C105.894 94.8143 104.732 95.8987 103.335 95.8987ZM101.279 93.4442C101.319 93.7569 102.094 94.7883 103.102 94.9275L103.336 94.9437C104.267 94.9437 104.962 94.2115 105.044 93.9716C104.958 93.8081 104.359 93.402 103.225 93.2438C102.98 93.2088 102.734 93.1911 102.487 93.1908C101.758 93.1908 101.37 93.3553 101.279 93.4442ZM140.455 92.3256C140.526 92.8324 139.527 94.1854 138.223 94.3669C136.921 94.5484 135.806 93.4909 135.734 92.9842C135.665 92.4775 136.665 91.9178 137.967 91.7372C139.27 91.5548 140.383 91.8198 140.455 92.3256ZM137.922 94.6256C136.668 94.6256 135.586 93.6499 135.497 93.0165C135.393 92.2565 136.645 91.6788 137.933 91.5C138.217 91.4605 138.498 91.4407 138.769 91.4407C139.881 91.4407 140.618 91.7668 140.691 92.2933C140.739 92.6338 140.477 93.1594 140.027 93.6338C139.73 93.9455 139.106 94.4855 138.255 94.6032L137.922 94.6256ZM138.77 91.9187C138.522 91.9187 138.263 91.9375 138.001 91.9735C136.706 92.154 135.933 92.6733 135.971 92.9519C136.014 93.2582 136.841 94.1486 137.923 94.1486L138.19 94.1297C138.897 94.0318 139.428 93.57 139.681 93.304C140.079 92.8863 140.238 92.4928 140.219 92.3589C140.194 92.181 139.716 91.9187 138.77 91.9187ZM142.332 121.426C142.072 121.426 141.817 121.356 141.595 121.222C141.372 121.089 141.19 120.897 141.067 120.668C140.945 120.439 140.888 120.18 140.901 119.921C140.914 119.662 140.997 119.411 141.142 119.195C144.195 114.636 143.636 109.986 143.096 105.49C142.866 103.574 142.628 101.593 142.689 99.6919C142.752 97.736 143.001 96.1224 143.241 94.5619C143.526 92.7129 143.795 90.9663 143.684 88.8927C143.674 88.7048 143.701 88.5167 143.763 88.3391C143.826 88.1616 143.923 87.9981 144.049 87.8581C144.174 87.718 144.326 87.6041 144.496 87.5228C144.666 87.4415 144.85 87.3944 145.038 87.3842C145.226 87.3741 145.414 87.4011 145.592 87.4636C145.769 87.5262 145.933 87.6231 146.073 87.7488C146.213 87.8745 146.327 88.0266 146.408 88.1964C146.489 88.3661 146.536 88.5502 146.546 88.7382C146.674 91.1083 146.369 93.0848 146.075 94.9976C145.847 96.4737 145.612 98.0002 145.555 99.7836C145.501 101.467 145.715 103.255 145.943 105.147C146.518 109.929 147.169 115.348 143.525 120.79C143.394 120.986 143.216 121.146 143.008 121.257C142.8 121.368 142.568 121.426 142.332 121.426Z" fill="white"/>
<defs>
<filter id="filter0_d_287_130" x="0.1" y="0.1" width="222.8" height="222.8" filterUnits="userSpaceOnUse" color-interpolation-filters="sRGB">
<feFlood flood-opacity="0" result="BackgroundImageFix"/>
<feColorMatrix in="SourceAlpha" type="matrix" values="0 0 0 0 0 0 0 0 0 0 0 0 0 0 0 0 0 0 127 0" result="hardAlpha"/>
<feOffset dx="3" dy="1"/>
<feGaussianBlur stdDeviation="5.45"/>
<feComposite in2="hardAlpha" operator="out"/>
<feColorMatrix type="matrix" values="0 0 0 0 0 0 0 0 0 0 0 0 0 0 0 0 0 0 0.25 0"/>
<feBlend mode="normal" in2="BackgroundImageFix" result="effect1_dropShadow_287_130"/>
<feBlend mode="normal" in="SourceGraphic" in2="effect1_dropShadow_287_130" result="shape"/>
</filter>
</defs>
</svg>
