<svg width="223" height="223" viewBox="0 0 223 223" fill="none" xmlns="http://www.w3.org/2000/svg">
<g filter="url(#filter0_d_288_136)">
<circle cx="108.5" cy="110.5" r="100.5" fill="black" fill-opacity="0.42" shape-rendering="crispEdges"/>
</g>
<g clip-path="url(#clip0_288_136)">
<path d="M110.458 47.014C109.304 46.9379 108.152 47.18 107.127 47.714C106.102 48.248 105.244 49.0533 104.646 50.042L56.7755 128.114C56.1518 129.131 55.8257 130.302 55.8341 131.495C55.8426 132.688 56.1854 133.854 56.8235 134.862L80.3915 172.048C81.139 173.22 82.2485 174.116 83.5516 174.6C84.8546 175.085 86.28 175.13 87.6115 174.731L155.624 154.324C156.497 154.063 157.304 153.617 157.991 153.016C158.677 152.416 159.226 151.675 159.602 150.844C159.977 150.013 160.17 149.111 160.167 148.2C160.163 147.288 159.965 146.387 159.584 145.559L115.864 50.709C115.388 49.6571 114.633 48.7561 113.68 48.1045C112.727 47.4528 111.613 47.0756 110.461 47.014H110.458ZM112.253 70.964C112.761 70.9032 113.275 71.0104 113.717 71.2691C114.159 71.5278 114.505 71.9239 114.701 72.397L144.861 142.181C144.995 142.491 145.062 142.826 145.057 143.164C145.053 143.502 144.976 143.835 144.833 144.142C144.69 144.448 144.484 144.72 144.228 144.941C143.972 145.162 143.672 145.326 143.349 145.422L96.3525 159.446C95.9576 159.563 95.5391 159.577 95.1376 159.484C94.7361 159.392 94.3652 159.198 94.0609 158.92C93.7566 158.642 93.5293 158.291 93.401 157.899C93.2726 157.508 93.2477 157.09 93.3285 156.686L110.159 72.874C110.253 72.3706 110.509 71.9117 110.888 71.5669C111.266 71.2222 111.747 71.0105 112.258 70.964H112.253Z" fill="#2D3748"/>
</g>
<defs>
<filter id="filter0_d_288_136" x="0.1" y="0.1" width="222.8" height="222.8" filterUnits="userSpaceOnUse" color-interpolation-filters="sRGB">
<feFlood flood-opacity="0" result="BackgroundImageFix"/>
<feColorMatrix in="SourceAlpha" type="matrix" values="0 0 0 0 0 0 0 0 0 0 0 0 0 0 0 0 0 0 127 0" result="hardAlpha"/>
<feOffset dx="3" dy="1"/>
<feGaussianBlur stdDeviation="5.45"/>
<feComposite in2="hardAlpha" operator="out"/>
<feColorMatrix type="matrix" values="0 0 0 0 0 0 0 0 0 0 0 0 0 0 0 0 0 0 0.25 0"/>
<feBlend mode="normal" in2="BackgroundImageFix" result="effect1_dropShadow_288_136"/>
<feBlend mode="normal" in="SourceGraphic" in2="effect1_dropShadow_288_136" result="shape"/>
</filter>
<clipPath id="clip0_288_136">
<rect width="128" height="128" fill="white" transform="translate(44 47)"/>
</clipPath>
</defs>
</svg>
