<svg width="223" height="223" viewBox="0 0 223 223" fill="none" xmlns="http://www.w3.org/2000/svg">
<g filter="url(#filter0_d_287_125)">
<circle cx="108.5" cy="110.5" r="100.5" fill="black" fill-opacity="0.42" shape-rendering="crispEdges"/>
</g>
<path fill-rule="evenodd" clip-rule="evenodd" d="M54.2188 101.156C54.2188 101.859 54.4258 102.323 54.5418 102.774C55.2978 105.707 56.9227 108.224 58.8507 110.52C61.5968 113.792 64.9597 116.426 68.4047 118.903C71.3927 121.051 74.4417 123.151 77.4417 125.283C77.9567 125.649 78.4438 126.07 79.0028 126.519C78.5218 126.779 78.1217 127.008 77.7057 127.219C73.7467 129.227 69.9378 131.478 66.4268 134.205C64.3108 135.849 62.2648 137.596 60.8198 139.879C58.4948 143.551 57.6718 147.463 59.4048 151.64C59.9108 152.86 60.6828 153.914 61.7718 154.693C62.1248 154.945 62.5208 155.195 62.9338 155.293C63.9918 155.542 65.0697 155.705 66.1407 155.902L69.1737 155.9C72.5278 155.601 75.5808 154.452 78.3398 152.548C82.6518 149.572 85.5567 145.582 86.8057 140.461C87.7137 136.739 87.7507 133.013 86.6807 129.308C86.5783 128.965 86.4602 128.626 86.3267 128.294C86.1967 127.961 86.0437 127.637 85.8637 127.222L92.7397 123.268L92.8427 123.356C92.7177 123.765 92.5847 124.173 92.4717 124.586C91.6547 127.57 91.1117 130.606 91.3067 133.703C91.5147 137.003 92.4357 140.092 94.3677 142.849C95.9297 145.079 99.6517 145.162 101.312 142.924C101.901 142.129 102.472 141.298 102.901 140.411C104.022 138.096 105.06 135.74 106.131 133.4L106.318 132.972C106.241 134.08 106.151 135.053 106.11 136.027C106.046 137.548 106.135 139.06 106.655 140.507C107.1 141.745 107.857 142.67 109.275 142.833C110.245 142.944 111.018 142.5 111.731 141.937C112.835 141.064 113.751 139.976 114.422 138.738C116.323 135.247 118.275 131.777 119.998 128.198C121.862 124.327 123.492 120.343 125.223 116.406L125.509 115.708C125.918 117.315 126.203 118.889 126.728 120.379C127.338 122.108 128.093 123.796 128.915 125.437C129.304 126.212 129.259 126.715 128.72 127.365C126.464 130.085 124.247 132.838 122.028 135.588C121.537 136.195 121.048 136.813 120.639 137.476C120.391 137.895 120.228 138.358 120.159 138.84C120.09 139.284 120.195 139.737 120.453 140.104C120.711 140.471 121.101 140.725 121.542 140.811C122.431 141.002 123.342 141.067 124.25 141.004C127.347 140.776 130.159 139.689 132.645 137.847C135.866 135.461 136.9 132.205 136.12 128.346C135.909 127.299 135.536 126.281 135.173 125.272C135.01 124.817 134.999 124.498 135.296 124.074C137.871 120.397 140.071 116.496 142.117 112.505C142.198 112.348 142.281 112.191 142.423 112.023C143.086 115.473 144.084 118.798 145.872 121.815C144.96 122.694 144.057 123.491 143.24 124.369C141.441 126.303 139.881 128.403 139.067 130.964C138.717 132.068 138.448 133.19 138.604 134.369C138.846 136.2 140.346 137.39 142.147 136.973C146.001 136.081 149.328 134.265 151.759 131.048C153.395 128.882 153.544 126.466 152.859 123.935C152.671 123.247 152.448 122.57 152.208 121.781C153.159 121.486 154.086 121.132 155.045 120.913C160.024 119.777 164.949 119.975 169.747 121.773C172.548 122.823 174.811 124.58 176.153 127.344C177.792 130.723 176.886 133.929 173.701 136.065C173.404 136.264 173.064 136.421 172.818 136.67C172.739 136.761 172.68 136.868 172.645 136.983C172.609 137.099 172.599 137.22 172.613 137.34C172.634 137.463 172.959 137.617 173.146 137.615C174.193 137.607 175.042 137.058 175.857 136.494C177.899 135.081 179.389 133.18 179.71 130.677L179.773 130.489L179.696 128.859C179.665 128.765 179.719 128.672 179.712 128.601C179.278 124.956 177.331 122.129 174.499 119.913C171.219 117.348 167.346 116.292 163.25 116.125C159.928 115.982 156.61 116.493 153.485 117.628C152.588 117.953 151.699 118.338 150.797 118.701C150.676 118.482 150.546 118.272 150.439 118.055C149.513 116.159 148.391 114.347 148.143 112.173C147.967 110.629 147.751 109.087 148.118 107.56C148.471 106.091 148.931 104.647 149.364 103.198C149.587 102.452 149.43 102.034 148.718 101.698C148.47 101.574 148.205 101.487 147.932 101.44C146.182 101.186 144.456 101.331 142.761 101.824C142.161 101.999 141.725 102.335 141.592 102.999C141.516 103.38 141.361 103.745 141.253 104.121C140.81 105.684 140.496 107.277 139.78 108.766C137.986 112.501 135.938 116.095 133.842 119.663C133.615 120.048 133.376 120.426 133.09 120.893C132.354 119.353 131.569 117.971 131.331 116.351C131.062 114.519 130.85 112.69 131.306 110.872C131.645 109.516 132.088 108.185 132.496 106.847C132.689 106.211 132.6 105.877 132.024 105.542C131.733 105.373 131.404 105.223 131.076 105.174C129.281 104.901 127.448 105.051 125.722 105.612C125.179 105.788 124.894 106.139 124.728 106.699C124.24 108.351 123.824 110.043 123.139 111.614C120.365 117.974 117.511 124.301 114.66 130.627C114.065 131.948 113.368 133.223 112.697 134.509C112.527 134.835 112.279 135.122 112.067 135.428C111.897 135.227 111.831 135.089 111.832 134.951C111.837 134.138 111.74 133.301 111.895 132.515C112.371 130.138 112.897 127.771 113.473 125.416C113.943 123.47 114.49 121.542 115.011 119.609C115.186 118.962 115.189 118.357 114.724 117.813C113.943 116.902 112.311 116.702 111.343 117.404L110.915 117.646L110.998 116.956C111.202 115.477 111.243 114.003 110.837 112.546C110.331 110.73 109.035 109.685 107.151 109.743C106.273 109.77 105.351 109.92 104.538 110.24C101.119 111.58 98.4897 113.953 96.2517 116.808C96.0443 117.073 95.7872 117.295 95.4947 117.462C92.6017 119.066 89.6997 120.65 86.7987 122.24L83.5697 124.009C82.7037 123.183 81.9168 122.326 81.0238 121.599C78.2968 119.375 75.5258 117.206 72.7798 115.007C70.3458 113.058 67.9878 111.028 66.1838 108.447C64.8418 106.527 63.9768 104.426 63.8938 102.052C63.7888 99.027 64.6468 96.263 66.1868 93.69C68.1568 90.398 70.8438 87.756 73.7978 85.363C76.9228 82.833 80.3027 80.685 83.8057 78.724C88.7067 75.981 93.7477 73.553 99.1527 71.95C104.695 70.306 110.318 69.365 116.118 70.021C118.398 70.279 120.612 70.801 122.645 71.916C124.202 72.769 125.479 73.886 126.073 75.632C126.659 77.35 126.641 79.091 126.235 80.836C125.41 84.37 123.475 87.283 121.04 89.886C117.046 94.153 112.174 97.058 106.689 98.977C103.535 100.082 100.254 100.782 96.9237 101.06C94.1947 101.289 91.5227 101.047 88.9387 100.098C87.2277 99.469 85.7378 98.507 84.5398 97.111C84.3258 96.861 84.0518 96.59 83.6528 96.824C83.2618 97.054 83.1927 97.426 83.3237 97.803C83.5427 98.429 83.7448 99.081 84.0858 99.641C84.9428 101.046 86.1927 102.065 87.5687 102.939C90.2117 104.62 93.1657 105.185 96.2287 105.316C100.877 105.517 105.412 104.823 109.883 103.576C116.266 101.796 121.816 98.652 126.267 93.692C129.973 89.562 132.62 84.901 133.187 79.273C133.464 76.526 133.169 73.835 131.883 71.329C130.488 68.614 128.27 66.595 125.618 65.204C121.756 63.179 117.588 62 113.286 62H108.976C103.766 62 98.7287 63.493 93.8327 65.274C90.1267 66.623 86.4928 68.215 82.9648 69.977C75.2818 73.816 68.1267 78.445 62.2498 84.81C59.3218 87.981 56.8428 91.48 55.4168 95.6C54.9864 96.8301 54.6156 98.0802 54.3058 99.346M82.1448 135.359C81.8118 139.818 79.7908 143.433 76.4878 146.361C74.6298 148.007 72.4988 149.179 70.0168 149.591C69.1168 149.74 68.1958 149.776 67.3228 149.403C66.0778 148.871 65.7987 147.766 65.7747 146.589C65.7377 144.713 66.3947 143.017 67.2957 141.403C68.4717 139.299 70.1958 137.695 72.0368 136.197C74.9368 133.836 78.0828 131.838 81.3048 129.952L81.5478 129.852C82.0458 131.692 82.2828 133.509 82.1448 135.359ZM107.303 115.98C107.068 117.404 106.774 118.829 106.358 120.209C104.92 124.986 103.073 129.615 101.076 134.182C100.707 135.027 100.17 135.798 99.7027 136.599C99.6233 136.722 99.5282 136.834 99.4197 136.933C98.8417 137.504 98.2937 137.474 98.0017 136.727C97.6617 135.859 97.4527 134.93 97.2727 134.011C97.1517 133.394 97.1807 132.746 97.1427 132.114C97.1817 127.62 98.5527 123.536 100.879 119.734C101.838 118.166 102.882 116.672 104.477 115.68C104.973 115.372 105.51 115.134 106.072 114.974C106.922 114.735 107.444 115.128 107.303 115.98ZM124.467 137.848L130.636 130.645C130.893 133.32 126.346 138.66 124.467 137.848ZM144.17 133.001C143.734 133.251 143.259 133.431 142.812 133.662C142.403 133.874 142.268 133.66 142.256 133.308C142.25 133.064 142.281 132.821 142.349 132.587C143.182 129.649 144.715 127.141 146.996 125.101L147.156 125.019C148.241 128.054 146.987 131.387 144.17 133.001Z" fill="#FF4DA7"/>
<defs>
<filter id="filter0_d_287_125" x="0.1" y="0.1" width="222.8" height="222.8" filterUnits="userSpaceOnUse" color-interpolation-filters="sRGB">
<feFlood flood-opacity="0" result="BackgroundImageFix"/>
<feColorMatrix in="SourceAlpha" type="matrix" values="0 0 0 0 0 0 0 0 0 0 0 0 0 0 0 0 0 0 127 0" result="hardAlpha"/>
<feOffset dx="3" dy="1"/>
<feGaussianBlur stdDeviation="5.45"/>
<feComposite in2="hardAlpha" operator="out"/>
<feColorMatrix type="matrix" values="0 0 0 0 0 0 0 0 0 0 0 0 0 0 0 0 0 0 0.25 0"/>
<feBlend mode="normal" in2="BackgroundImageFix" result="effect1_dropShadow_287_125"/>
<feBlend mode="normal" in="SourceGraphic" in2="effect1_dropShadow_287_125" result="shape"/>
</filter>
</defs>
</svg>
